<svg version="1.1" viewBox="0.0 0.0 970.0 600.0" fill="none" stroke="none" stroke-linecap="square" stroke-miterlimit="10" width="970" height="600" xmlns:xlink="http://www.w3.org/1999/xlink" xmlns="http://www.w3.org/2000/svg"><path fill="#ffffff" d="M0 0L970.0 0L970.0 600.0L0 600.0L0 0Z" fill-rule="nonzero"/><path stroke="#333333" stroke-width="1.0" stroke-linecap="butt" d="M99.5 518.5L940.5 518.5" fill-rule="nonzero"/><path stroke="#cccccc" stroke-width="1.0" stroke-linecap="butt" d="M99.5 397.5L940.5 397.5" fill-rule="nonzero"/><path stroke="#cccccc" stroke-width="1.0" stroke-linecap="butt" d="M99.5 277.5L940.5 277.5" fill-rule="nonzero"/><path stroke="#cccccc" stroke-width="1.0" stroke-linecap="butt" d="M99.5 157.5L940.5 157.5" fill-rule="nonzero"/><path stroke="#cccccc" stroke-width="1.0" stroke-linecap="butt" d="M99.5 37.5L940.5 37.5" fill-rule="nonzero"/><clipPath id="id_0"><path d="M99.0 37.0L940.0 37.0L940.0 518.0L99.0 518.0L99.0 37.0Z" clip-rule="nonzero"/></clipPath><path stroke="#4285f4" stroke-width="2.0" stroke-linecap="butt" clip-path="url(#id_0)" d="M239.16667 111.91575L519.5 245.9945L799.8333 422.5215" fill-rule="nonzero"/><path fill="#000000" fill-opacity="0.0" clip-path="url(#id_0)" d="M242.16667 111.91575C242.16667 113.5726 240.82352 114.91575 239.16667 114.91575C237.50981 114.91575 236.16667 113.5726 236.16667 111.91575C236.16667 110.258896 237.50981 108.91575 239.16667 108.91575C240.82352 108.91575 242.16667 110.258896 242.16667 111.91575Z" fill-rule="nonzero"/><path fill="#000000" fill-opacity="0.0" clip-path="url(#id_0)" d="M522.5 245.9945C522.5 247.65135 521.15686 248.9945 519.5 248.9945C517.84314 248.9945 516.5 247.65135 516.5 245.9945C516.5 244.33765 517.84314 242.9945 519.5 242.9945C521.15686 242.9945 522.5 244.33765 522.5 245.9945Z" fill-rule="nonzero"/><path fill="#000000" fill-opacity="0.0" clip-path="url(#id_0)" d="M802.8333 422.5215C802.8333 424.17834 801.4902 425.5215 799.8333 425.5215C798.17645 425.5215 796.8333 424.17834 796.8333 422.5215C796.8333 420.86465 798.17645 419.5215 799.8333 419.5215C801.4902 419.5215 802.8333 420.86465 802.8333 422.5215Z" fill-rule="nonzero"/><path fill="#000000" d="M502.375 567.0L502.375 558.40625L506.03125 558.40625Q507.40625 558.40625 508.03125 558.6406Q508.65625 558.875 509.03125 559.46875Q509.40625 560.0625 509.40625 560.8125Q509.40625 561.78125 508.82812 562.4219Q508.26562 563.0469 507.14062 563.2031Q507.70312 563.53125 508.0625 563.9375Q508.4375 564.3281 509.04688 565.3281L510.10938 567.0L508.03125 567.0L506.78125 565.125Q506.10938 564.125 505.85938 563.875Q505.60938 563.6094 505.32812 563.5156Q505.0625 563.40625 504.46875 563.40625L504.10938 563.40625L504.10938 567.0L502.375 567.0ZM504.10938 562.0469L505.39062 562.0469Q506.64062 562.0469 506.95312 561.9375Q507.26562 561.8281 507.4375 561.5781Q507.625 561.3125 507.625 560.9219Q507.625 560.5 507.39062 560.2344Q507.15625 559.96875 506.73438 559.8906Q506.51562 559.8594 505.46875 559.8594L504.10938 559.8594L504.10938 562.0469ZM509.98438 563.7969Q509.98438 562.9844 510.39062 562.21875Q510.79688 561.4375 511.53125 561.0469Q512.2656 560.6406 513.1875 560.6406Q514.59375 560.6406 515.5 561.5625Q516.40625 562.46875 516.40625 563.875Q516.40625 565.28125 515.4844 566.21875Q514.5781 567.1406 513.2031 567.1406Q512.34375 567.1406 511.5625 566.75Q510.79688 566.3594 510.39062 565.625Q509.98438 564.875 509.98438 563.7969ZM511.67188 563.8906Q511.67188 564.8125 512.1094 565.3125Q512.5469 565.7969 513.1875 565.7969Q513.84375 565.7969 514.2656 565.3125Q514.7031 564.8125 514.7031 563.875Q514.7031 562.96875 514.2656 562.4844Q513.84375 561.9844 513.1875 561.9844Q512.5469 561.9844 512.1094 562.4844Q511.67188 562.96875 511.67188 563.8906ZM521.4531 567.0L521.4531 566.0625Q521.125 566.5625 520.5625 566.8594Q520.0156 567.1406 519.3906 567.1406Q518.7656 567.1406 518.2656 566.875Q517.7656 566.59375 517.5469 566.09375Q517.3281 565.59375 517.3281 564.71875L517.3281 560.78125L518.96875 560.78125L518.96875 563.6406Q518.96875 564.9531 519.0625 565.25Q519.15625 565.5469 519.3906 565.71875Q519.6406 565.8906 520.0 565.8906Q520.4219 565.8906 520.75 565.65625Q521.09375 565.4219 521.21875 565.0781Q521.34375 564.7344 521.34375 563.40625L521.34375 560.78125L522.9844 560.78125L522.9844 567.0L521.4531 567.0ZM530.0156 567.0L528.375 567.0L528.375 563.8281Q528.375 562.8125 528.2656 562.5156Q528.1719 562.21875 527.9219 562.0625Q527.6875 561.8906 527.3594 561.8906Q526.9219 561.8906 526.5781 562.125Q526.25 562.3594 526.125 562.75Q526.0 563.1406 526.0 564.1875L526.0 567.0L524.34375 567.0L524.34375 560.78125L525.875 560.78125L525.875 561.6875Q526.6875 560.6406 527.9375 560.6406Q528.46875 560.6406 528.9219 560.84375Q529.375 561.03125 529.6094 561.34375Q529.84375 561.6406 529.9219 562.03125Q530.0156 562.40625 530.0156 563.125L530.0156 567.0ZM537.0625 567.0L535.5469 567.0L535.5469 566.0781Q535.15625 566.625 534.6406 566.8906Q534.125 567.1406 533.59375 567.1406Q532.5156 567.1406 531.75 566.28125Q531.0 565.40625 531.0 563.8594Q531.0 562.28125 531.7344 561.46875Q532.4844 560.6406 533.625 560.6406Q534.65625 560.6406 535.4219 561.5L535.4219 558.40625L537.0625 558.40625L537.0625 567.0ZM532.6719 563.75Q532.6719 564.75 532.9531 565.1875Q533.34375 565.84375 534.0625 565.84375Q534.625 565.84375 535.0156 565.3594Q535.4219 564.875 535.4219 563.90625Q535.4219 562.84375 535.03125 562.375Q534.65625 561.8906 534.0469 561.8906Q533.46875 561.8906 533.0625 562.3594Q532.6719 562.8281 532.6719 563.75Z" fill-rule="nonzero"/><path fill="#000000" d="M37.84375 313.125L38.375 311.45312Q39.78125 311.82812 40.46875 312.73438Q41.140625 313.64062 41.140625 315.01562Q41.140625 316.73438 39.984375 317.84375Q38.8125 318.9375 36.78125 318.9375Q34.640625 318.9375 33.453125 317.82812Q32.265625 316.71875 32.265625 314.90625Q32.265625 313.32812 33.1875 312.34375Q33.75 311.76562 34.78125 311.46875L35.1875 313.1875Q34.515625 313.34375 34.140625 313.82812Q33.75 314.3125 33.75 315.0Q33.75 315.95312 34.4375 316.54688Q35.109375 317.14062 36.65625 317.14062Q38.28125 317.14062 38.96875 316.5625Q39.65625 315.96875 39.65625 315.03125Q39.65625 314.34375 39.21875 313.84375Q38.78125 313.34375 37.84375 313.125ZM37.796875 311.01562Q36.984375 311.01562 36.21875 310.60938Q35.4375 310.20312 35.046875 309.46875Q34.640625 308.73438 34.640625 307.8125Q34.640625 306.40625 35.5625 305.5Q36.46875 304.59375 37.875 304.59375Q39.28125 304.59375 40.21875 305.51562Q41.140625 306.42188 41.140625 307.79688Q41.140625 308.65625 40.75 309.4375Q40.359375 310.20312 39.625 310.60938Q38.875 311.01562 37.796875 311.01562ZM37.890625 309.32812Q38.8125 309.32812 39.3125 308.89062Q39.796875 308.45312 39.796875 307.8125Q39.796875 307.15625 39.3125 306.73438Q38.8125 306.29688 37.875 306.29688Q36.96875 306.29688 36.484375 306.73438Q35.984375 307.15625 35.984375 307.8125Q35.984375 308.45312 36.484375 308.89062Q36.96875 309.32812 37.890625 309.32812ZM41.0 297.98438L41.0 299.625L37.828125 299.625Q36.8125 299.625 36.515625 299.73438Q36.21875 299.82812 36.0625 300.07812Q35.890625 300.3125 35.890625 300.64062Q35.890625 301.07812 36.125 301.42188Q36.359375 301.75 36.75 301.875Q37.140625 302.0 38.1875 302.0L41.0 302.0L41.0 303.65625L34.78125 303.65625L34.78125 302.125L35.6875 302.125Q34.640625 301.3125 34.640625 300.0625Q34.640625 299.53125 34.84375 299.07812Q35.03125 298.625 35.34375 298.39062Q35.640625 298.15625 36.03125 298.07812Q36.40625 297.98438 37.125 297.98438L41.0 297.98438ZM34.78125 293.78125L36.09375 293.78125L36.09375 294.90625L38.59375 294.90625Q39.359375 294.90625 39.484375 294.875Q39.609375 294.84375 39.703125 294.73438Q39.78125 294.60938 39.78125 294.45312Q39.78125 294.21875 39.609375 293.79688L40.890625 293.65625Q41.140625 294.21875 41.140625 294.95312Q41.140625 295.39062 41.0 295.75Q40.84375 296.10938 40.609375 296.28125Q40.359375 296.4375 39.96875 296.51562Q39.671875 296.5625 38.796875 296.5625L36.09375 296.5625L36.09375 297.3125L34.78125 297.3125L34.78125 296.5625L33.546875 296.5625L32.578125 294.90625L34.78125 294.90625L34.78125 293.78125ZM41.0 291.0625L41.0 292.70312L34.78125 292.70312L34.78125 291.17188L35.65625 291.17188Q35.03125 290.78125 34.84375 290.46875Q34.640625 290.15625 34.640625 289.76562Q34.640625 289.20312 34.953125 288.67188L36.375 289.1875Q36.109375 289.60938 36.109375 289.95312Q36.109375 290.3125 36.3125 290.54688Q36.5 290.78125 37.0 290.92188Q37.484375 291.0625 39.078125 291.0625L41.0 291.0625ZM33.9375 287.64062L32.40625 287.64062L32.40625 285.98438L33.9375 285.98438L33.9375 287.64062ZM41.0 287.64062L34.78125 287.64062L34.78125 285.98438L41.0 285.98438L41.0 287.64062ZM41.0 284.70312L32.40625 284.70312L32.40625 283.0625L35.5 283.0625Q34.640625 282.29688 34.640625 281.25Q34.640625 280.125 35.46875 279.375Q36.28125 278.625 37.828125 278.625Q39.421875 278.625 40.28125 279.39062Q41.140625 280.15625 41.140625 281.23438Q41.140625 281.76562 40.875 282.28125Q40.609375 282.79688 40.078125 283.17188L41.0 283.17188L41.0 284.70312ZM37.75 283.07812Q38.71875 283.07812 39.1875 282.76562Q39.84375 282.34375 39.84375 281.625Q39.84375 281.09375 39.375 280.70312Q38.90625 280.3125 37.90625 280.3125Q36.84375 280.3125 36.375 280.70312Q35.890625 281.09375 35.890625 281.70312Q35.890625 282.28125 36.359375 282.6875Q36.8125 283.07812 37.75 283.07812ZM41.0 273.54688L40.0625 273.54688Q40.5625 273.875 40.859375 274.4375Q41.140625 274.98438 41.140625 275.60938Q41.140625 276.23438 40.875 276.73438Q40.59375 277.23438 40.09375 277.45312Q39.59375 277.67188 38.71875 277.67188L34.78125 277.67188L34.78125 276.03125L37.640625 276.03125Q38.953125 276.03125 39.25 275.9375Q39.546875 275.84375 39.71875 275.60938Q39.890625 275.35938 39.890625 275.0Q39.890625 274.57812 39.65625 274.25Q39.421875 273.90625 39.078125 273.78125Q38.734375 273.65625 37.40625 273.65625L34.78125 273.65625L34.78125 272.01562L41.0 272.01562L41.0 273.54688ZM34.78125 267.78125L36.09375 267.78125L36.09375 268.90625L38.59375 268.90625Q39.359375 268.90625 39.484375 268.875Q39.609375 268.84375 39.703125 268.73438Q39.78125 268.60938 39.78125 268.45312Q39.78125 268.21875 39.609375 267.79688L40.890625 267.65625Q41.140625 268.21875 41.140625 268.95312Q41.140625 269.39062 41.0 269.75Q40.84375 270.10938 40.609375 270.28125Q40.359375 270.4375 39.96875 270.51562Q39.671875 270.5625 38.796875 270.5625L36.09375 270.5625L36.09375 271.3125L34.78125 271.3125L34.78125 270.5625L33.546875 270.5625L32.578125 268.90625L34.78125 268.90625L34.78125 267.78125ZM37.796875 267.01562Q36.984375 267.01562 36.21875 266.60938Q35.4375 266.20312 35.046875 265.46875Q34.640625 264.73438 34.640625 263.8125Q34.640625 262.40625 35.5625 261.5Q36.46875 260.59375 37.875 260.59375Q39.28125 260.59375 40.21875 261.51562Q41.140625 262.42188 41.140625 263.79688Q41.140625 264.65625 40.75 265.4375Q40.359375 266.20312 39.625 266.60938Q38.875 267.01562 37.796875 267.01562ZM37.890625 265.32812Q38.8125 265.32812 39.3125 264.89062Q39.796875 264.45312 39.796875 263.8125Q39.796875 263.15625 39.3125 262.73438Q38.8125 262.29688 37.875 262.29688Q36.96875 262.29688 36.484375 262.73438Q35.984375 263.15625 35.984375 263.8125Q35.984375 264.45312 36.484375 264.89062Q36.96875 265.32812 37.890625 265.32812ZM41.0 258.0625L41.0 259.70312L34.78125 259.70312L34.78125 258.17188L35.65625 258.17188Q35.03125 257.78125 34.84375 257.46875Q34.640625 257.15625 34.640625 256.76562Q34.640625 256.20312 34.953125 255.67188L36.375 256.1875Q36.109375 256.60938 36.109375 256.95312Q36.109375 257.3125 36.3125 257.54688Q36.5 257.78125 37.0 257.92188Q37.484375 258.0625 39.078125 258.0625L41.0 258.0625ZM39.21875 255.21875L38.96875 253.5625Q39.453125 253.45312 39.703125 253.14062Q39.953125 252.8125 39.953125 252.23438Q39.953125 251.59375 39.71875 251.28125Q39.546875 251.0625 39.28125 251.0625Q39.09375 251.0625 38.96875 251.17188Q38.84375 251.29688 38.75 251.71875Q38.3125 253.71875 37.953125 254.25Q37.4375 254.98438 36.546875 254.98438Q35.734375 254.98438 35.1875 254.35938Q34.640625 253.71875 34.640625 252.375Q34.640625 251.09375 35.0625 250.46875Q35.46875 249.84375 36.28125 249.60938L36.5625 251.17188Q36.203125 251.26562 36.015625 251.54688Q35.8125 251.82812 35.8125 252.34375Q35.8125 252.98438 36.0 253.26562Q36.125 253.45312 36.328125 253.45312Q36.515625 253.45312 36.640625 253.29688Q36.796875 253.07812 37.09375 251.76562Q37.390625 250.4375 37.828125 249.92188Q38.265625 249.40625 39.046875 249.40625Q39.90625 249.40625 40.53125 250.125Q41.140625 250.82812 41.140625 252.23438Q41.140625 253.5 40.625 254.25Q40.109375 254.98438 39.21875 255.21875Z" fill-rule="nonzero"/><path fill="#000000" d="M86.5 517.7656Q86.5 516.2344 86.8125 515.3125Q87.125 514.375 87.734375 513.875Q88.359375 513.375 89.296875 513.375Q89.984375 513.375 90.5 513.65625Q91.03125 513.9375 91.375 514.46875Q91.71875 514.9844 91.90625 515.7344Q92.09375 516.4844 92.09375 517.7656Q92.09375 519.28125 91.78125 520.2031Q91.484375 521.125 90.859375 521.6406Q90.25 522.1406 89.296875 522.1406Q88.0625 522.1406 87.34375 521.25Q86.5 520.1875 86.5 517.7656ZM87.578125 517.7656Q87.578125 519.875 88.078125 520.5781Q88.578125 521.28125 89.296875 521.28125Q90.03125 521.28125 90.515625 520.5781Q91.015625 519.875 91.015625 517.7656Q91.015625 515.6406 90.515625 514.9531Q90.03125 514.25 89.28125 514.25Q88.5625 514.25 88.125 514.8594Q87.578125 515.6406 87.578125 517.7656Z" fill-rule="nonzero"/><path fill="#000000" d="M66.46875 401.75L65.421875 401.75L65.421875 395.03125Q65.03125 395.39062 64.40625 395.76562Q63.796875 396.125 63.3125 396.29688L63.3125 395.28125Q64.1875 394.85938 64.84375 394.28125Q65.515625 393.6875 65.796875 393.125L66.46875 393.125L66.46875 401.75ZM70.0625 401.75L70.0625 400.54688L71.265625 400.54688L71.265625 401.75Q71.265625 402.40625 71.03125 402.8125Q70.796875 403.23438 70.296875 403.45312L70.0 403.0Q70.328125 402.85938 70.484375 402.5625Q70.640625 402.28125 70.671875 401.75L70.0625 401.75ZM72.5 397.51562Q72.5 395.98438 72.8125 395.0625Q73.125 394.125 73.734375 393.625Q74.359375 393.125 75.296875 393.125Q75.984375 393.125 76.5 393.40625Q77.03125 393.6875 77.375 394.21875Q77.71875 394.73438 77.90625 395.48438Q78.09375 396.23438 78.09375 397.51562Q78.09375 399.03125 77.78125 399.95312Q77.484375 400.875 76.859375 401.39062Q76.25 401.89062 75.296875 401.89062Q74.0625 401.89062 73.34375 401.0Q72.5 399.9375 72.5 397.51562ZM73.578125 397.51562Q73.578125 399.625 74.078125 400.32812Q74.578125 401.03125 75.296875 401.03125Q76.03125 401.03125 76.515625 400.32812Q77.015625 399.625 77.015625 397.51562Q77.015625 395.39062 76.515625 394.70312Q76.03125 394.0 75.28125 394.0Q74.5625 394.0 74.125 394.60938Q73.578125 395.39062 73.578125 397.51562ZM79.5 397.51562Q79.5 395.98438 79.8125 395.0625Q80.125 394.125 80.734375 393.625Q81.359375 393.125 82.296875 393.125Q82.984375 393.125 83.5 393.40625Q84.03125 393.6875 84.375 394.21875Q84.71875 394.73438 84.90625 395.48438Q85.09375 396.23438 85.09375 397.51562Q85.09375 399.03125 84.78125 399.95312Q84.484375 400.875 83.859375 401.39062Q83.25 401.89062 82.296875 401.89062Q81.0625 401.89062 80.34375 401.0Q79.5 399.9375 79.5 397.51562ZM80.578125 397.51562Q80.578125 399.625 81.078125 400.32812Q81.578125 401.03125 82.296875 401.03125Q83.03125 401.03125 83.515625 400.32812Q84.015625 399.625 84.015625 397.51562Q84.015625 395.39062 83.515625 394.70312Q83.03125 394.0 82.28125 394.0Q81.5625 394.0 81.125 394.60938Q80.578125 395.39062 80.578125 397.51562ZM86.5 397.51562Q86.5 395.98438 86.8125 395.0625Q87.125 394.125 87.734375 393.625Q88.359375 393.125 89.296875 393.125Q89.984375 393.125 90.5 393.40625Q91.03125 393.6875 91.375 394.21875Q91.71875 394.73438 91.90625 395.48438Q92.09375 396.23438 92.09375 397.51562Q92.09375 399.03125 91.78125 399.95312Q91.484375 400.875 90.859375 401.39062Q90.25 401.89062 89.296875 401.89062Q88.0625 401.89062 87.34375 401.0Q86.5 399.9375 86.5 397.51562ZM87.578125 397.51562Q87.578125 399.625 88.078125 400.32812Q88.578125 401.03125 89.296875 401.03125Q90.03125 401.03125 90.515625 400.32812Q91.015625 399.625 91.015625 397.51562Q91.015625 395.39062 90.515625 394.70312Q90.03125 394.0 89.28125 394.0Q88.5625 394.0 88.125 394.60938Q87.578125 395.39062 87.578125 397.51562Z" fill-rule="nonzero"/><path fill="#000000" d="M68.046875 280.48438L68.046875 281.5L62.359375 281.5Q62.359375 281.125 62.484375 280.76562Q62.703125 280.1875 63.171875 279.625Q63.65625 279.0625 64.5625 278.32812Q65.96875 277.17188 66.453125 276.5Q66.953125 275.82812 66.953125 275.23438Q66.953125 274.60938 66.5 274.1875Q66.046875 273.75 65.328125 273.75Q64.5625 273.75 64.109375 274.20312Q63.65625 274.65625 63.640625 275.46875L62.5625 275.35938Q62.671875 274.14062 63.390625 273.51562Q64.125 272.875 65.359375 272.875Q66.59375 272.875 67.3125 273.5625Q68.03125 274.25 68.03125 275.26562Q68.03125 275.78125 67.8125 276.28125Q67.609375 276.76562 67.109375 277.32812Q66.625 277.875 65.5 278.82812Q64.546875 279.625 64.265625 279.92188Q64.0 280.20312 63.828125 280.48438L68.046875 280.48438ZM70.0625 281.5L70.0625 280.29688L71.265625 280.29688L71.265625 281.5Q71.265625 282.15625 71.03125 282.5625Q70.796875 282.98438 70.296875 283.20312L70.0 282.75Q70.328125 282.60938 70.484375 282.3125Q70.640625 282.03125 70.671875 281.5L70.0625 281.5ZM72.5 277.26562Q72.5 275.73438 72.8125 274.8125Q73.125 273.875 73.734375 273.375Q74.359375 272.875 75.296875 272.875Q75.984375 272.875 76.5 273.15625Q77.03125 273.4375 77.375 273.96875Q77.71875 274.48438 77.90625 275.23438Q78.09375 275.98438 78.09375 277.26562Q78.09375 278.78125 77.78125 279.70312Q77.484375 280.625 76.859375 281.14062Q76.25 281.64062 75.296875 281.64062Q74.0625 281.64062 73.34375 280.75Q72.5 279.6875 72.5 277.26562ZM73.578125 277.26562Q73.578125 279.375 74.078125 280.07812Q74.578125 280.78125 75.296875 280.78125Q76.03125 280.78125 76.515625 280.07812Q77.015625 279.375 77.015625 277.26562Q77.015625 275.14062 76.515625 274.45312Q76.03125 273.75 75.28125 273.75Q74.5625 273.75 74.125 274.35938Q73.578125 275.14062 73.578125 277.26562ZM79.5 277.26562Q79.5 275.73438 79.8125 274.8125Q80.125 273.875 80.734375 273.375Q81.359375 272.875 82.296875 272.875Q82.984375 272.875 83.5 273.15625Q84.03125 273.4375 84.375 273.96875Q84.71875 274.48438 84.90625 275.23438Q85.09375 275.98438 85.09375 277.26562Q85.09375 278.78125 84.78125 279.70312Q84.484375 280.625 83.859375 281.14062Q83.25 281.64062 82.296875 281.64062Q81.0625 281.64062 80.34375 280.75Q79.5 279.6875 79.5 277.26562ZM80.578125 277.26562Q80.578125 279.375 81.078125 280.07812Q81.578125 280.78125 82.296875 280.78125Q83.03125 280.78125 83.515625 280.07812Q84.015625 279.375 84.015625 277.26562Q84.015625 275.14062 83.515625 274.45312Q83.03125 273.75 82.28125 273.75Q81.5625 273.75 81.125 274.35938Q80.578125 275.14062 80.578125 277.26562ZM86.5 277.26562Q86.5 275.73438 86.8125 274.8125Q87.125 273.875 87.734375 273.375Q88.359375 272.875 89.296875 272.875Q89.984375 272.875 90.5 273.15625Q91.03125 273.4375 91.375 273.96875Q91.71875 274.48438 91.90625 275.23438Q92.09375 275.98438 92.09375 277.26562Q92.09375 278.78125 91.78125 279.70312Q91.484375 280.625 90.859375 281.14062Q90.25 281.64062 89.296875 281.64062Q88.0625 281.64062 87.34375 280.75Q86.5 279.6875 86.5 277.26562ZM87.578125 277.26562Q87.578125 279.375 88.078125 280.07812Q88.578125 280.78125 89.296875 280.78125Q90.03125 280.78125 90.515625 280.07812Q91.015625 279.375 91.015625 277.26562Q91.015625 275.14062 90.515625 274.45312Q90.03125 273.75 89.28125 273.75Q88.5625 273.75 88.125 274.35938Q87.578125 275.14062 87.578125 277.26562Z" fill-rule="nonzero"/><path fill="#000000" d="M62.5 158.98438L63.5625 158.84375Q63.734375 159.73438 64.171875 160.14062Q64.609375 160.53125 65.234375 160.53125Q65.984375 160.53125 66.5 160.01562Q67.015625 159.5 67.015625 158.73438Q67.015625 158.01562 66.53125 157.54688Q66.0625 157.0625 65.328125 157.0625Q65.03125 157.0625 64.578125 157.1875L64.703125 156.25Q64.8125 156.26562 64.875 156.26562Q65.546875 156.26562 66.078125 155.92188Q66.625 155.5625 66.625 154.82812Q66.625 154.25 66.234375 153.875Q65.84375 153.48438 65.21875 153.48438Q64.609375 153.48438 64.1875 153.875Q63.78125 154.26562 63.671875 155.03125L62.609375 154.84375Q62.796875 153.79688 63.484375 153.21875Q64.171875 152.625 65.1875 152.625Q65.890625 152.625 66.484375 152.9375Q67.078125 153.23438 67.390625 153.75Q67.703125 154.26562 67.703125 154.85938Q67.703125 155.40625 67.40625 155.875Q67.109375 156.32812 66.53125 156.59375Q67.28125 156.76562 67.703125 157.32812Q68.125 157.875 68.125 158.71875Q68.125 159.84375 67.296875 160.625Q66.484375 161.40625 65.234375 161.40625Q64.109375 161.40625 63.359375 160.73438Q62.609375 160.04688 62.5 158.98438ZM70.0625 161.25L70.0625 160.04688L71.265625 160.04688L71.265625 161.25Q71.265625 161.90625 71.03125 162.3125Q70.796875 162.73438 70.296875 162.95312L70.0 162.5Q70.328125 162.35938 70.484375 162.0625Q70.640625 161.78125 70.671875 161.25L70.0625 161.25ZM72.5 157.01562Q72.5 155.48438 72.8125 154.5625Q73.125 153.625 73.734375 153.125Q74.359375 152.625 75.296875 152.625Q75.984375 152.625 76.5 152.90625Q77.03125 153.1875 77.375 153.71875Q77.71875 154.23438 77.90625 154.98438Q78.09375 155.73438 78.09375 157.01562Q78.09375 158.53125 77.78125 159.45312Q77.484375 160.375 76.859375 160.89062Q76.25 161.39062 75.296875 161.39062Q74.0625 161.39062 73.34375 160.5Q72.5 159.4375 72.5 157.01562ZM73.578125 157.01562Q73.578125 159.125 74.078125 159.82812Q74.578125 160.53125 75.296875 160.53125Q76.03125 160.53125 76.515625 159.82812Q77.015625 159.125 77.015625 157.01562Q77.015625 154.89062 76.515625 154.20312Q76.03125 153.5 75.28125 153.5Q74.5625 153.5 74.125 154.10938Q73.578125 154.89062 73.578125 157.01562ZM79.5 157.01562Q79.5 155.48438 79.8125 154.5625Q80.125 153.625 80.734375 153.125Q81.359375 152.625 82.296875 152.625Q82.984375 152.625 83.5 152.90625Q84.03125 153.1875 84.375 153.71875Q84.71875 154.23438 84.90625 154.98438Q85.09375 155.73438 85.09375 157.01562Q85.09375 158.53125 84.78125 159.45312Q84.484375 160.375 83.859375 160.89062Q83.25 161.39062 82.296875 161.39062Q81.0625 161.39062 80.34375 160.5Q79.5 159.4375 79.5 157.01562ZM80.578125 157.01562Q80.578125 159.125 81.078125 159.82812Q81.578125 160.53125 82.296875 160.53125Q83.03125 160.53125 83.515625 159.82812Q84.015625 159.125 84.015625 157.01562Q84.015625 154.89062 83.515625 154.20312Q83.03125 153.5 82.28125 153.5Q81.5625 153.5 81.125 154.10938Q80.578125 154.89062 80.578125 157.01562ZM86.5 157.01562Q86.5 155.48438 86.8125 154.5625Q87.125 153.625 87.734375 153.125Q88.359375 152.625 89.296875 152.625Q89.984375 152.625 90.5 152.90625Q91.03125 153.1875 91.375 153.71875Q91.71875 154.23438 91.90625 154.98438Q92.09375 155.73438 92.09375 157.01562Q92.09375 158.53125 91.78125 159.45312Q91.484375 160.375 90.859375 160.89062Q90.25 161.39062 89.296875 161.39062Q88.0625 161.39062 87.34375 160.5Q86.5 159.4375 86.5 157.01562ZM87.578125 157.01562Q87.578125 159.125 88.078125 159.82812Q88.578125 160.53125 89.296875 160.53125Q90.03125 160.53125 90.515625 159.82812Q91.015625 159.125 91.015625 157.01562Q91.015625 154.89062 90.515625 154.20312Q90.03125 153.5 89.28125 153.5Q88.5625 153.5 88.125 154.10938Q87.578125 154.89062 87.578125 157.01562Z" fill-rule="nonzero"/><path fill="#000000" d="M65.875 41.0L65.875 38.9375L62.15625 38.9375L62.15625 37.96875L66.078125 32.40625L66.9375 32.40625L66.9375 37.96875L68.09375 37.96875L68.09375 38.9375L66.9375 38.9375L66.9375 41.0L65.875 41.0ZM65.875 37.96875L65.875 34.109375L63.1875 37.96875L65.875 37.96875ZM70.0625 41.0L70.0625 39.796875L71.265625 39.796875L71.265625 41.0Q71.265625 41.65625 71.03125 42.0625Q70.796875 42.484375 70.296875 42.703125L70.0 42.25Q70.328125 42.109375 70.484375 41.8125Q70.640625 41.53125 70.671875 41.0L70.0625 41.0ZM72.5 36.765625Q72.5 35.234375 72.8125 34.3125Q73.125 33.375 73.734375 32.875Q74.359375 32.375 75.296875 32.375Q75.984375 32.375 76.5 32.65625Q77.03125 32.9375 77.375 33.46875Q77.71875 33.984375 77.90625 34.734375Q78.09375 35.484375 78.09375 36.765625Q78.09375 38.28125 77.78125 39.203125Q77.484375 40.125 76.859375 40.640625Q76.25 41.140625 75.296875 41.140625Q74.0625 41.140625 73.34375 40.25Q72.5 39.1875 72.5 36.765625ZM73.578125 36.765625Q73.578125 38.875 74.078125 39.578125Q74.578125 40.28125 75.296875 40.28125Q76.03125 40.28125 76.515625 39.578125Q77.015625 38.875 77.015625 36.765625Q77.015625 34.640625 76.515625 33.953125Q76.03125 33.25 75.28125 33.25Q74.5625 33.25 74.125 33.859375Q73.578125 34.640625 73.578125 36.765625ZM79.5 36.765625Q79.5 35.234375 79.8125 34.3125Q80.125 33.375 80.734375 32.875Q81.359375 32.375 82.296875 32.375Q82.984375 32.375 83.5 32.65625Q84.03125 32.9375 84.375 33.46875Q84.71875 33.984375 84.90625 34.734375Q85.09375 35.484375 85.09375 36.765625Q85.09375 38.28125 84.78125 39.203125Q84.484375 40.125 83.859375 40.640625Q83.25 41.140625 82.296875 41.140625Q81.0625 41.140625 80.34375 40.25Q79.5 39.1875 79.5 36.765625ZM80.578125 36.765625Q80.578125 38.875 81.078125 39.578125Q81.578125 40.28125 82.296875 40.28125Q83.03125 40.28125 83.515625 39.578125Q84.015625 38.875 84.015625 36.765625Q84.015625 34.640625 83.515625 33.953125Q83.03125 33.25 82.28125 33.25Q81.5625 33.25 81.125 33.859375Q80.578125 34.640625 80.578125 36.765625ZM86.5 36.765625Q86.5 35.234375 86.8125 34.3125Q87.125 33.375 87.734375 32.875Q88.359375 32.375 89.296875 32.375Q89.984375 32.375 90.5 32.65625Q91.03125 32.9375 91.375 33.46875Q91.71875 33.984375 91.90625 34.734375Q92.09375 35.484375 92.09375 36.765625Q92.09375 38.28125 91.78125 39.203125Q91.484375 40.125 90.859375 40.640625Q90.25 41.140625 89.296875 41.140625Q88.0625 41.140625 87.34375 40.25Q86.5 39.1875 86.5 36.765625ZM87.578125 36.765625Q87.578125 38.875 88.078125 39.578125Q88.578125 40.28125 89.296875 40.28125Q90.03125 40.28125 90.515625 39.578125Q91.015625 38.875 91.015625 36.765625Q91.015625 34.640625 90.515625 33.953125Q90.03125 33.25 89.28125 33.25Q88.5625 33.25 88.125 33.859375Q87.578125 34.640625 87.578125 36.765625Z" fill-rule="nonzero"/><path fill="#000000" d="M228.1198 531.625L228.1198 530.625L231.7448 530.6094L231.7448 533.7969Q230.91667 534.46875 230.02605 534.8125Q229.13542 535.1406 228.19792 535.1406Q226.9323 535.1406 225.88542 534.6094Q224.85417 534.0625 224.32292 533.0469Q223.8073 532.0156 223.8073 530.75Q223.8073 529.4844 224.32292 528.40625Q224.85417 527.3125 225.83855 526.7969Q226.82292 526.2656 228.10417 526.2656Q229.04167 526.2656 229.79167 526.5625Q230.54167 526.8594 230.96355 527.40625Q231.40105 527.9375 231.6198 528.8125L230.60417 529.09375Q230.40105 528.4375 230.10417 528.0625Q229.82292 527.6875 229.29167 527.46875Q228.76042 527.2344 228.1198 527.2344Q227.33855 527.2344 226.76042 527.46875Q226.19792 527.7031 225.83855 528.09375Q225.4948 528.4844 225.3073 528.9531Q224.97917 529.75 224.97917 530.6719Q224.97917 531.8281 225.3698 532.6094Q225.77605 533.375 226.52605 533.75Q227.27605 534.125 228.13542 534.125Q228.8698 534.125 229.57292 533.84375Q230.27605 533.5469 230.63542 533.2344L230.63542 531.625L228.1198 531.625ZM237.1198 531.625L237.1198 530.625L240.7448 530.6094L240.7448 533.7969Q239.91667 534.46875 239.02605 534.8125Q238.13542 535.1406 237.19792 535.1406Q235.9323 535.1406 234.88542 534.6094Q233.85417 534.0625 233.32292 533.0469Q232.8073 532.0156 232.8073 530.75Q232.8073 529.4844 233.32292 528.40625Q233.85417 527.3125 234.83855 526.7969Q235.82292 526.2656 237.10417 526.2656Q238.04167 526.2656 238.79167 526.5625Q239.54167 526.8594 239.96355 527.40625Q240.40105 527.9375 240.6198 528.8125L239.60417 529.09375Q239.40105 528.4375 239.10417 528.0625Q238.82292 527.6875 238.29167 527.46875Q237.76042 527.2344 237.1198 527.2344Q236.33855 527.2344 235.76042 527.46875Q235.19792 527.7031 234.83855 528.09375Q234.4948 528.4844 234.3073 528.9531Q233.97917 529.75 233.97917 530.6719Q233.97917 531.8281 234.3698 532.6094Q234.77605 533.375 235.52605 533.75Q236.27605 534.125 237.13542 534.125Q237.8698 534.125 238.57292 533.84375Q239.27605 533.5469 239.63542 533.2344L239.63542 531.625L237.1198 531.625ZM245.63542 535.0L244.58855 535.0L244.58855 528.28125Q244.19792 528.6406 243.57292 529.0156Q242.96355 529.375 242.47917 529.5469L242.47917 528.53125Q243.35417 528.1094 244.01042 527.53125Q244.6823 526.9375 244.96355 526.375L245.63542 526.375L245.63542 535.0ZM248.82292 533.0156L249.83855 532.9219Q249.96355 533.6406 250.32292 533.96875Q250.69792 534.28125 251.26042 534.28125Q251.7448 534.28125 252.10417 534.0625Q252.47917 533.8281 252.71355 533.46875Q252.94792 533.09375 253.10417 532.46875Q253.26042 531.8281 253.26042 531.1719Q253.26042 531.09375 253.26042 530.9531Q252.94792 531.4531 252.40105 531.78125Q251.85417 532.09375 251.21355 532.09375Q250.13542 532.09375 249.40105 531.3281Q248.66667 530.5469 248.66667 529.28125Q248.66667 527.96875 249.4323 527.1719Q250.21355 526.375 251.3698 526.375Q252.19792 526.375 252.88542 526.8281Q253.58855 527.28125 253.94792 528.125Q254.3073 528.9531 254.3073 530.53125Q254.3073 532.1719 253.94792 533.15625Q253.60417 534.125 252.88542 534.6406Q252.1823 535.1406 251.2448 535.1406Q250.22917 535.1406 249.58855 534.59375Q248.94792 534.03125 248.82292 533.0156ZM253.13542 529.21875Q253.13542 528.3125 252.65105 527.78125Q252.1823 527.25 251.4948 527.25Q250.79167 527.25 250.26042 527.8281Q249.7448 528.3906 249.7448 529.3125Q249.7448 530.125 250.2448 530.6406Q250.7448 531.15625 251.46355 531.15625Q252.19792 531.15625 252.66667 530.6406Q253.13542 530.125 253.13542 529.21875Z" fill-rule="nonzero"/><path fill="#000000" d="M508.45312 531.625L508.45312 530.625L512.0781 530.6094L512.0781 533.7969Q511.25 534.46875 510.35938 534.8125Q509.46875 535.1406 508.53125 535.1406Q507.26562 535.1406 506.21875 534.6094Q505.1875 534.0625 504.65625 533.0469Q504.14062 532.0156 504.14062 530.75Q504.14062 529.4844 504.65625 528.40625Q505.1875 527.3125 506.17188 526.7969Q507.15625 526.2656 508.4375 526.2656Q509.375 526.2656 510.125 526.5625Q510.875 526.8594 511.29688 527.40625Q511.73438 527.9375 511.95312 528.8125L510.9375 529.09375Q510.73438 528.4375 510.4375 528.0625Q510.15625 527.6875 509.625 527.46875Q509.09375 527.2344 508.45312 527.2344Q507.67188 527.2344 507.09375 527.46875Q506.53125 527.7031 506.17188 528.09375Q505.82812 528.4844 505.64062 528.9531Q505.3125 529.75 505.3125 530.6719Q505.3125 531.8281 505.70312 532.6094Q506.10938 533.375 506.85938 533.75Q507.60938 534.125 508.46875 534.125Q509.20312 534.125 509.90625 533.84375Q510.60938 533.5469 510.96875 533.2344L510.96875 531.625L508.45312 531.625ZM517.4531 531.625L517.4531 530.625L521.0781 530.6094L521.0781 533.7969Q520.25 534.46875 519.3594 534.8125Q518.46875 535.1406 517.53125 535.1406Q516.2656 535.1406 515.21875 534.6094Q514.1875 534.0625 513.65625 533.0469Q513.1406 532.0156 513.1406 530.75Q513.1406 529.4844 513.65625 528.40625Q514.1875 527.3125 515.1719 526.7969Q516.15625 526.2656 517.4375 526.2656Q518.375 526.2656 519.125 526.5625Q519.875 526.8594 520.2969 527.40625Q520.7344 527.9375 520.9531 528.8125L519.9375 529.09375Q519.7344 528.4375 519.4375 528.0625Q519.15625 527.6875 518.625 527.46875Q518.09375 527.2344 517.4531 527.2344Q516.6719 527.2344 516.09375 527.46875Q515.53125 527.7031 515.1719 528.09375Q514.8281 528.4844 514.6406 528.9531Q514.3125 529.75 514.3125 530.6719Q514.3125 531.8281 514.7031 532.6094Q515.1094 533.375 515.8594 533.75Q516.6094 534.125 517.46875 534.125Q518.2031 534.125 518.90625 533.84375Q519.6094 533.5469 519.96875 533.2344L519.96875 531.625L517.4531 531.625ZM527.5469 533.9844L527.5469 535.0L521.8594 535.0Q521.8594 534.625 521.9844 534.2656Q522.2031 533.6875 522.6719 533.125Q523.15625 532.5625 524.0625 531.8281Q525.46875 530.6719 525.9531 530.0Q526.4531 529.3281 526.4531 528.7344Q526.4531 528.1094 526.0 527.6875Q525.5469 527.25 524.8281 527.25Q524.0625 527.25 523.6094 527.7031Q523.15625 528.15625 523.1406 528.96875L522.0625 528.8594Q522.1719 527.6406 522.8906 527.0156Q523.625 526.375 524.8594 526.375Q526.09375 526.375 526.8125 527.0625Q527.53125 527.75 527.53125 528.7656Q527.53125 529.28125 527.3125 529.78125Q527.1094 530.2656 526.6094 530.8281Q526.125 531.375 525.0 532.3281Q524.0469 533.125 523.7656 533.4219Q523.5 533.7031 523.3281 533.9844L527.5469 533.9844ZM529.0 530.7656Q529.0 529.2344 529.3125 528.3125Q529.625 527.375 530.2344 526.875Q530.8594 526.375 531.7969 526.375Q532.4844 526.375 533.0 526.65625Q533.53125 526.9375 533.875 527.46875Q534.21875 527.9844 534.40625 528.7344Q534.59375 529.4844 534.59375 530.7656Q534.59375 532.28125 534.28125 533.2031Q533.9844 534.125 533.3594 534.6406Q532.75 535.1406 531.7969 535.1406Q530.5625 535.1406 529.84375 534.25Q529.0 533.1875 529.0 530.7656ZM530.0781 530.7656Q530.0781 532.875 530.5781 533.5781Q531.0781 534.28125 531.7969 534.28125Q532.53125 534.28125 533.0156 533.5781Q533.5156 532.875 533.5156 530.7656Q533.5156 528.6406 533.0156 527.9531Q532.53125 527.25 531.78125 527.25Q531.0625 527.25 530.625 527.8594Q530.0781 528.6406 530.0781 530.7656Z" fill-rule="nonzero"/><path fill="#000000" d="M788.78644 531.625L788.78644 530.625L792.41144 530.6094L792.41144 533.7969Q791.5833 534.46875 790.6927 534.8125Q789.80206 535.1406 788.86456 535.1406Q787.59894 535.1406 786.55206 534.6094Q785.5208 534.0625 784.98956 533.0469Q784.47394 532.0156 784.47394 530.75Q784.47394 529.4844 784.98956 528.40625Q785.5208 527.3125 786.5052 526.7969Q787.48956 526.2656 788.7708 526.2656Q789.7083 526.2656 790.4583 526.5625Q791.2083 526.8594 791.6302 527.40625Q792.0677 527.9375 792.28644 528.8125L791.2708 529.09375Q791.0677 528.4375 790.7708 528.0625Q790.48956 527.6875 789.9583 527.46875Q789.42706 527.2344 788.78644 527.2344Q788.0052 527.2344 787.42706 527.46875Q786.86456 527.7031 786.5052 528.09375Q786.16144 528.4844 785.97394 528.9531Q785.6458 529.75 785.6458 530.6719Q785.6458 531.8281 786.03644 532.6094Q786.4427 533.375 787.1927 533.75Q787.9427 534.125 788.80206 534.125Q789.53644 534.125 790.23956 533.84375Q790.9427 533.5469 791.30206 533.2344L791.30206 531.625L788.78644 531.625ZM797.78644 531.625L797.78644 530.625L801.41144 530.6094L801.41144 533.7969Q800.5833 534.46875 799.6927 534.8125Q798.80206 535.1406 797.86456 535.1406Q796.59894 535.1406 795.55206 534.6094Q794.5208 534.0625 793.98956 533.0469Q793.47394 532.0156 793.47394 530.75Q793.47394 529.4844 793.98956 528.40625Q794.5208 527.3125 795.5052 526.7969Q796.48956 526.2656 797.7708 526.2656Q798.7083 526.2656 799.4583 526.5625Q800.2083 526.8594 800.6302 527.40625Q801.0677 527.9375 801.28644 528.8125L800.2708 529.09375Q800.0677 528.4375 799.7708 528.0625Q799.48956 527.6875 798.9583 527.46875Q798.42706 527.2344 797.78644 527.2344Q797.0052 527.2344 796.42706 527.46875Q795.86456 527.7031 795.5052 528.09375Q795.16144 528.4844 794.97394 528.9531Q794.6458 529.75 794.6458 530.6719Q794.6458 531.8281 795.03644 532.6094Q795.4427 533.375 796.1927 533.75Q796.9427 534.125 797.80206 534.125Q798.53644 534.125 799.23956 533.84375Q799.9427 533.5469 800.30206 533.2344L800.30206 531.625L797.78644 531.625ZM807.8802 533.9844L807.8802 535.0L802.1927 535.0Q802.1927 534.625 802.3177 534.2656Q802.53644 533.6875 803.0052 533.125Q803.48956 532.5625 804.3958 531.8281Q805.80206 530.6719 806.28644 530.0Q806.78644 529.3281 806.78644 528.7344Q806.78644 528.1094 806.3333 527.6875Q805.8802 527.25 805.16144 527.25Q804.3958 527.25 803.9427 527.7031Q803.48956 528.15625 803.47394 528.96875L802.3958 528.8594Q802.5052 527.6406 803.22394 527.0156Q803.9583 526.375 805.1927 526.375Q806.42706 526.375 807.1458 527.0625Q807.86456 527.75 807.86456 528.7656Q807.86456 529.28125 807.6458 529.78125Q807.4427 530.2656 806.9427 530.8281Q806.4583 531.375 805.3333 532.3281Q804.3802 533.125 804.09894 533.4219Q803.8333 533.7031 803.66144 533.9844L807.8802 533.9844ZM813.30206 535.0L812.2552 535.0L812.2552 528.28125Q811.86456 528.6406 811.23956 529.0156Q810.6302 529.375 810.1458 529.5469L810.1458 528.53125Q811.0208 528.1094 811.67706 527.53125Q812.34894 526.9375 812.6302 526.375L813.30206 526.375L813.30206 535.0Z" fill-rule="nonzero"/></svg>