<svg version="1.1" viewBox="0.0 0.0 970.0 600.0" fill="none" stroke="none" stroke-linecap="square" stroke-miterlimit="10" width="970" height="600" xmlns:xlink="http://www.w3.org/1999/xlink" xmlns="http://www.w3.org/2000/svg"><path fill="#ffffff" d="M0 0L970.0 0L970.0 600.0L0 600.0L0 0Z" fill-rule="nonzero"/><path stroke="#333333" stroke-width="1.0" stroke-linecap="butt" d="M130.5 518.5L940.5 518.5" fill-rule="nonzero"/><path stroke="#cccccc" stroke-width="1.0" stroke-linecap="butt" d="M130.5 357.5L940.5 357.5" fill-rule="nonzero"/><path stroke="#cccccc" stroke-width="1.0" stroke-linecap="butt" d="M130.5 197.5L940.5 197.5" fill-rule="nonzero"/><path stroke="#cccccc" stroke-width="1.0" stroke-linecap="butt" d="M130.5 37.5L940.5 37.5" fill-rule="nonzero"/><clipPath id="id_0"><path d="M130.0 37.0L940.0 37.0L940.0 518.0L130.0 518.0L130.0 37.0Z" clip-rule="nonzero"/></clipPath><path stroke="#6aa84f" stroke-width="2.0" stroke-linecap="butt" clip-path="url(#id_0)" d="M265.0 234.77133L535.0 52.948837L805.0 341.2325" fill-rule="nonzero"/><path fill="#000000" fill-opacity="0.0" clip-path="url(#id_0)" d="M268.0 234.77133C268.0 236.42818 266.65686 237.77133 265.0 237.77133C263.34314 237.77133 262.0 236.42818 262.0 234.77133C262.0 233.11447 263.34314 231.77133 265.0 231.77133C266.65686 231.77133 268.0 233.11447 268.0 234.77133Z" fill-rule="nonzero"/><path fill="#000000" fill-opacity="0.0" clip-path="url(#id_0)" d="M538.0 52.948837C538.0 54.605694 536.65686 55.948837 535.0 55.948837C533.34314 55.948837 532.0 54.605694 532.0 52.948837C532.0 51.291985 533.34314 49.948837 535.0 49.948837C536.65686 49.948837 538.0 51.291985 538.0 52.948837Z" fill-rule="nonzero"/><path fill="#000000" fill-opacity="0.0" clip-path="url(#id_0)" d="M808.0 341.2325C808.0 342.88934 806.65686 344.2325 805.0 344.2325C803.34314 344.2325 802.0 342.88934 802.0 341.2325C802.0 339.57565 803.34314 338.2325 805.0 338.2325C806.65686 338.2325 808.0 339.57565 808.0 341.2325Z" fill-rule="nonzero"/><path fill="#000000" d="M517.875 567.0L517.875 558.40625L521.53125 558.40625Q522.90625 558.40625 523.53125 558.6406Q524.15625 558.875 524.53125 559.46875Q524.90625 560.0625 524.90625 560.8125Q524.90625 561.78125 524.3281 562.4219Q523.7656 563.0469 522.6406 563.2031Q523.2031 563.53125 523.5625 563.9375Q523.9375 564.3281 524.5469 565.3281L525.6094 567.0L523.53125 567.0L522.28125 565.125Q521.6094 564.125 521.3594 563.875Q521.1094 563.6094 520.8281 563.5156Q520.5625 563.40625 519.96875 563.40625L519.6094 563.40625L519.6094 567.0L517.875 567.0ZM519.6094 562.0469L520.8906 562.0469Q522.1406 562.0469 522.4531 561.9375Q522.7656 561.8281 522.9375 561.5781Q523.125 561.3125 523.125 560.9219Q523.125 560.5 522.8906 560.2344Q522.65625 559.96875 522.2344 559.8906Q522.0156 559.8594 520.96875 559.8594L519.6094 559.8594L519.6094 562.0469ZM525.4844 563.7969Q525.4844 562.9844 525.8906 562.21875Q526.2969 561.4375 527.03125 561.0469Q527.7656 560.6406 528.6875 560.6406Q530.09375 560.6406 531.0 561.5625Q531.90625 562.46875 531.90625 563.875Q531.90625 565.28125 530.9844 566.21875Q530.0781 567.1406 528.7031 567.1406Q527.84375 567.1406 527.0625 566.75Q526.2969 566.3594 525.8906 565.625Q525.4844 564.875 525.4844 563.7969ZM527.1719 563.8906Q527.1719 564.8125 527.6094 565.3125Q528.0469 565.7969 528.6875 565.7969Q529.34375 565.7969 529.7656 565.3125Q530.2031 564.8125 530.2031 563.875Q530.2031 562.96875 529.7656 562.4844Q529.34375 561.9844 528.6875 561.9844Q528.0469 561.9844 527.6094 562.4844Q527.1719 562.96875 527.1719 563.8906ZM536.9531 567.0L536.9531 566.0625Q536.625 566.5625 536.0625 566.8594Q535.5156 567.1406 534.8906 567.1406Q534.2656 567.1406 533.7656 566.875Q533.2656 566.59375 533.0469 566.09375Q532.8281 565.59375 532.8281 564.71875L532.8281 560.78125L534.46875 560.78125L534.46875 563.6406Q534.46875 564.9531 534.5625 565.25Q534.65625 565.5469 534.8906 565.71875Q535.1406 565.8906 535.5 565.8906Q535.9219 565.8906 536.25 565.65625Q536.59375 565.4219 536.71875 565.0781Q536.84375 564.7344 536.84375 563.40625L536.84375 560.78125L538.4844 560.78125L538.4844 567.0L536.9531 567.0ZM545.5156 567.0L543.875 567.0L543.875 563.8281Q543.875 562.8125 543.7656 562.5156Q543.6719 562.21875 543.4219 562.0625Q543.1875 561.8906 542.8594 561.8906Q542.4219 561.8906 542.0781 562.125Q541.75 562.3594 541.625 562.75Q541.5 563.1406 541.5 564.1875L541.5 567.0L539.84375 567.0L539.84375 560.78125L541.375 560.78125L541.375 561.6875Q542.1875 560.6406 543.4375 560.6406Q543.96875 560.6406 544.4219 560.84375Q544.875 561.03125 545.1094 561.34375Q545.34375 561.6406 545.4219 562.03125Q545.5156 562.40625 545.5156 563.125L545.5156 567.0ZM552.5625 567.0L551.0469 567.0L551.0469 566.0781Q550.65625 566.625 550.1406 566.8906Q549.625 567.1406 549.09375 567.1406Q548.0156 567.1406 547.25 566.28125Q546.5 565.40625 546.5 563.8594Q546.5 562.28125 547.2344 561.46875Q547.9844 560.6406 549.125 560.6406Q550.15625 560.6406 550.9219 561.5L550.9219 558.40625L552.5625 558.40625L552.5625 567.0ZM548.1719 563.75Q548.1719 564.75 548.4531 565.1875Q548.84375 565.84375 549.5625 565.84375Q550.125 565.84375 550.5156 565.3594Q550.9219 564.875 550.9219 563.90625Q550.9219 562.84375 550.53125 562.375Q550.15625 561.8906 549.5469 561.8906Q548.96875 561.8906 548.5625 562.3594Q548.1719 562.8281 548.1719 563.75Z" fill-rule="nonzero"/><path fill="#000000" d="M41.0 316.875L41.0 318.76562L39.046875 319.51562L39.046875 322.95312L41.0 323.65625L41.0 325.5L32.40625 322.15625L32.40625 320.3125L41.0 316.875ZM37.59375 320.07812L34.40625 321.25L37.59375 322.42188L37.59375 320.07812ZM34.78125 316.76562L34.78125 315.25L35.625 315.25Q34.640625 314.42188 34.640625 313.29688Q34.640625 312.70312 34.890625 312.26562Q35.125 311.82812 35.625 311.54688Q35.125 311.14062 34.890625 310.67188Q34.640625 310.1875 34.640625 309.64062Q34.640625 308.96875 34.921875 308.5Q35.1875 308.01562 35.734375 307.78125Q36.125 307.60938 37.015625 307.60938L41.0 307.60938L41.0 309.25L37.4375 309.25Q36.515625 309.25 36.25 309.42188Q35.890625 309.65625 35.890625 310.125Q35.890625 310.46875 36.109375 310.78125Q36.3125 311.07812 36.71875 311.21875Q37.125 311.35938 38.015625 311.35938L41.0 311.35938L41.0 313.0L37.59375 313.0Q36.6875 313.0 36.421875 313.09375Q36.15625 313.17188 36.03125 313.35938Q35.890625 313.54688 35.890625 313.85938Q35.890625 314.23438 36.109375 314.54688Q36.3125 314.84375 36.703125 314.98438Q37.078125 315.10938 37.96875 315.10938L41.0 315.10938L41.0 316.76562L34.78125 316.76562ZM37.796875 306.01562Q36.984375 306.01562 36.21875 305.60938Q35.4375 305.20312 35.046875 304.46875Q34.640625 303.73438 34.640625 302.8125Q34.640625 301.40625 35.5625 300.5Q36.46875 299.59375 37.875 299.59375Q39.28125 299.59375 40.21875 300.51562Q41.140625 301.42188 41.140625 302.79688Q41.140625 303.65625 40.75 304.4375Q40.359375 305.20312 39.625 305.60938Q38.875 306.01562 37.796875 306.01562ZM37.890625 304.32812Q38.8125 304.32812 39.3125 303.89062Q39.796875 303.45312 39.796875 302.8125Q39.796875 302.15625 39.3125 301.73438Q38.8125 301.29688 37.875 301.29688Q36.96875 301.29688 36.484375 301.73438Q35.984375 302.15625 35.984375 302.8125Q35.984375 303.45312 36.484375 303.89062Q36.96875 304.32812 37.890625 304.32812ZM41.0 294.54688L40.0625 294.54688Q40.5625 294.875 40.859375 295.4375Q41.140625 295.98438 41.140625 296.60938Q41.140625 297.23438 40.875 297.73438Q40.59375 298.23438 40.09375 298.45312Q39.59375 298.67188 38.71875 298.67188L34.78125 298.67188L34.78125 297.03125L37.640625 297.03125Q38.953125 297.03125 39.25 296.9375Q39.546875 296.84375 39.71875 296.60938Q39.890625 296.35938 39.890625 296.0Q39.890625 295.57812 39.65625 295.25Q39.421875 294.90625 39.078125 294.78125Q38.734375 294.65625 37.40625 294.65625L34.78125 294.65625L34.78125 293.01562L41.0 293.01562L41.0 294.54688ZM41.0 285.98438L41.0 287.625L37.828125 287.625Q36.8125 287.625 36.515625 287.73438Q36.21875 287.82812 36.0625 288.07812Q35.890625 288.3125 35.890625 288.64062Q35.890625 289.07812 36.125 289.42188Q36.359375 289.75 36.75 289.875Q37.140625 290.0 38.1875 290.0L41.0 290.0L41.0 291.65625L34.78125 291.65625L34.78125 290.125L35.6875 290.125Q34.640625 289.3125 34.640625 288.0625Q34.640625 287.53125 34.84375 287.07812Q35.03125 286.625 35.34375 286.39062Q35.640625 286.15625 36.03125 286.07812Q36.40625 285.98438 37.125 285.98438L41.0 285.98438ZM34.78125 281.78125L36.09375 281.78125L36.09375 282.90625L38.59375 282.90625Q39.359375 282.90625 39.484375 282.875Q39.609375 282.84375 39.703125 282.73438Q39.78125 282.60938 39.78125 282.45312Q39.78125 282.21875 39.609375 281.79688L40.890625 281.65625Q41.140625 282.21875 41.140625 282.95312Q41.140625 283.39062 41.0 283.75Q40.84375 284.10938 40.609375 284.28125Q40.359375 284.4375 39.96875 284.51562Q39.671875 284.5625 38.796875 284.5625L36.09375 284.5625L36.09375 285.3125L34.78125 285.3125L34.78125 284.5625L33.546875 284.5625L32.578125 282.90625L34.78125 282.90625L34.78125 281.78125ZM33.9375 277.64062L32.40625 277.64062L32.40625 275.98438L33.9375 275.98438L33.9375 277.64062ZM41.0 277.64062L34.78125 277.64062L34.78125 275.98438L41.0 275.98438L41.0 277.64062ZM41.0 268.98438L41.0 270.625L37.828125 270.625Q36.8125 270.625 36.515625 270.73438Q36.21875 270.82812 36.0625 271.07812Q35.890625 271.3125 35.890625 271.64062Q35.890625 272.07812 36.125 272.42188Q36.359375 272.75 36.75 272.875Q37.140625 273.0 38.1875 273.0L41.0 273.0L41.0 274.65625L34.78125 274.65625L34.78125 273.125L35.6875 273.125Q34.640625 272.3125 34.640625 271.0625Q34.640625 270.53125 34.84375 270.07812Q35.03125 269.625 35.34375 269.39062Q35.640625 269.15625 36.03125 269.07812Q36.40625 268.98438 37.125 268.98438L41.0 268.98438ZM32.40625 264.64062L32.40625 262.90625L37.0625 262.90625Q38.171875 262.90625 38.5 262.84375Q39.03125 262.73438 39.34375 262.3125Q39.65625 261.89062 39.65625 261.15625Q39.65625 260.42188 39.359375 260.04688Q39.0625 259.67188 38.625 259.59375Q38.1875 259.51562 37.15625 259.51562L32.40625 259.51562L32.40625 257.78125L36.921875 257.78125Q38.46875 257.78125 39.109375 257.92188Q39.75 258.0625 40.1875 258.45312Q40.625 258.82812 40.890625 259.46875Q41.140625 260.09375 41.140625 261.10938Q41.140625 262.34375 40.859375 262.98438Q40.578125 263.60938 40.125 263.98438Q39.671875 264.34375 39.171875 264.46875Q38.4375 264.64062 36.984375 264.64062L32.40625 264.64062ZM38.203125 257.0625L38.046875 255.375Q38.890625 255.21875 39.296875 254.76562Q39.6875 254.29688 39.6875 253.5Q39.6875 252.67188 39.34375 252.25Q38.984375 251.8125 38.5 251.8125Q38.203125 251.8125 37.984375 252.0Q37.765625 252.17188 37.609375 252.625Q37.5 252.92188 37.234375 254.0Q36.890625 255.40625 36.390625 255.96875Q35.671875 256.75 34.65625 256.75Q34.0 256.75 33.4375 256.39062Q32.859375 256.01562 32.5625 255.3125Q32.265625 254.60938 32.265625 253.625Q32.265625 252.0 32.984375 251.1875Q33.6875 250.375 34.859375 250.32812L34.9375 252.0625Q34.28125 252.17188 34.0 252.54688Q33.703125 252.90625 33.703125 253.64062Q33.703125 254.39062 34.015625 254.82812Q34.203125 255.09375 34.546875 255.09375Q34.84375 255.09375 35.0625 254.84375Q35.34375 254.51562 35.640625 253.25Q35.9375 251.98438 36.265625 251.375Q36.578125 250.76562 37.140625 250.42188Q37.6875 250.07812 38.5 250.07812Q39.234375 250.07812 39.890625 250.5Q40.53125 250.90625 40.84375 251.65625Q41.15625 252.40625 41.15625 253.51562Q41.15625 255.15625 40.40625 256.03125Q39.640625 256.89062 38.203125 257.0625ZM39.734375 246.64062L37.265625 246.64062Q36.9375 247.78125 36.28125 248.32812Q35.609375 248.85938 34.671875 248.85938Q33.703125 248.85938 33.046875 248.25Q32.390625 247.64062 32.296875 246.64062L31.71875 246.64062L31.71875 245.78125L32.296875 245.78125Q32.40625 244.85938 32.9375 244.3125Q33.453125 243.75 34.34375 243.59375L34.53125 245.07812Q33.84375 245.21875 33.59375 245.78125L35.890625 245.78125Q36.265625 244.375 36.875 243.875Q37.484375 243.35938 38.421875 243.35938Q39.484375 243.35938 40.21875 244.0Q40.9375 244.64062 41.109375 245.78125L42.203125 245.78125L42.203125 246.64062L41.140625 246.64062Q41.015625 247.64062 40.390625 248.28125Q39.75 248.90625 38.59375 249.09375L38.421875 247.5625Q38.890625 247.46875 39.234375 247.21875Q39.578125 246.95312 39.734375 246.64062ZM33.578125 246.64062Q33.6875 246.98438 33.96875 247.1875Q34.25 247.39062 34.59375 247.39062Q34.90625 247.39062 35.171875 247.20312Q35.4375 247.01562 35.609375 246.64062L33.578125 246.64062ZM39.8125 245.78125Q39.734375 245.34375 39.40625 245.07812Q39.078125 244.79688 38.640625 244.79688Q38.25 244.79688 37.96875 245.03125Q37.671875 245.25 37.53125 245.78125L39.8125 245.78125Z" fill-rule="nonzero"/><path fill="#000000" d="M95.984375 523.2344L95.984375 522.1875Q95.203125 522.0781 94.703125 521.8281Q94.203125 521.5781 93.84375 521.0156Q93.484375 520.4375 93.421875 519.6094L94.484375 519.4219Q94.609375 520.2656 94.921875 520.65625Q95.375 521.21875 95.984375 521.2969L95.984375 517.9375Q95.34375 517.8125 94.65625 517.4219Q94.15625 517.1406 93.875 516.65625Q93.609375 516.15625 93.609375 515.5156Q93.609375 514.3906 94.40625 513.7031Q94.9375 513.2344 95.984375 513.125L95.984375 512.625L96.609375 512.625L96.609375 513.125Q97.53125 513.2031 98.0625 513.65625Q98.765625 514.2344 98.90625 515.2344L97.8125 515.40625Q97.71875 514.78125 97.421875 514.4531Q97.125 514.125 96.609375 514.0156L96.609375 517.0469Q97.40625 517.25 97.671875 517.3594Q98.15625 517.5781 98.46875 517.8906Q98.78125 518.2031 98.9375 518.6406Q99.109375 519.0625 99.109375 519.5625Q99.109375 520.65625 98.40625 521.3906Q97.71875 522.125 96.609375 522.1719L96.609375 523.2344L95.984375 523.2344ZM95.984375 514.0Q95.375 514.09375 95.015625 514.5Q94.671875 514.8906 94.671875 515.4375Q94.671875 515.96875 94.96875 516.34375Q95.265625 516.7031 95.984375 516.9219L95.984375 514.0ZM96.609375 521.2969Q97.21875 521.21875 97.625 520.7656Q98.03125 520.2969 98.03125 519.625Q98.03125 519.0469 97.734375 518.7031Q97.453125 518.3594 96.609375 518.0781L96.609375 521.2969ZM100.5 517.7656Q100.5 516.2344 100.8125 515.3125Q101.125 514.375 101.734375 513.875Q102.359375 513.375 103.296875 513.375Q103.984375 513.375 104.5 513.65625Q105.03125 513.9375 105.375 514.46875Q105.71875 514.9844 105.90625 515.7344Q106.09375 516.4844 106.09375 517.7656Q106.09375 519.28125 105.78125 520.2031Q105.484375 521.125 104.859375 521.6406Q104.25 522.1406 103.296875 522.1406Q102.0625 522.1406 101.34375 521.25Q100.5 520.1875 100.5 517.7656ZM101.578125 517.7656Q101.578125 519.875 102.078125 520.5781Q102.578125 521.28125 103.296875 521.28125Q104.03125 521.28125 104.515625 520.5781Q105.015625 519.875 105.015625 517.7656Q105.015625 515.6406 104.515625 514.9531Q104.03125 514.25 103.28125 514.25Q102.5625 514.25 102.125 514.8594Q101.578125 515.6406 101.578125 517.7656ZM108.09375 522.0L108.09375 520.7969L109.296875 520.7969L109.296875 522.0L108.09375 522.0ZM110.5 517.7656Q110.5 516.2344 110.8125 515.3125Q111.125 514.375 111.734375 513.875Q112.359375 513.375 113.296875 513.375Q113.984375 513.375 114.5 513.65625Q115.03125 513.9375 115.375 514.46875Q115.71875 514.9844 115.90625 515.7344Q116.09375 516.4844 116.09375 517.7656Q116.09375 519.28125 115.78125 520.2031Q115.484375 521.125 114.859375 521.6406Q114.25 522.1406 113.296875 522.1406Q112.0625 522.1406 111.34375 521.25Q110.5 520.1875 110.5 517.7656ZM111.578125 517.7656Q111.578125 519.875 112.078125 520.5781Q112.578125 521.28125 113.296875 521.28125Q114.03125 521.28125 114.515625 520.5781Q115.015625 519.875 115.015625 517.7656Q115.015625 515.6406 114.515625 514.9531Q114.03125 514.25 113.28125 514.25Q112.5625 514.25 112.125 514.8594Q111.578125 515.6406 111.578125 517.7656ZM117.5 517.7656Q117.5 516.2344 117.8125 515.3125Q118.125 514.375 118.734375 513.875Q119.359375 513.375 120.296875 513.375Q120.984375 513.375 121.5 513.65625Q122.03125 513.9375 122.375 514.46875Q122.71875 514.9844 122.90625 515.7344Q123.09375 516.4844 123.09375 517.7656Q123.09375 519.28125 122.78125 520.2031Q122.484375 521.125 121.859375 521.6406Q121.25 522.1406 120.296875 522.1406Q119.0625 522.1406 118.34375 521.25Q117.5 520.1875 117.5 517.7656ZM118.578125 517.7656Q118.578125 519.875 119.078125 520.5781Q119.578125 521.28125 120.296875 521.28125Q121.03125 521.28125 121.515625 520.5781Q122.015625 519.875 122.015625 517.7656Q122.015625 515.6406 121.515625 514.9531Q121.03125 514.25 120.28125 514.25Q119.5625 514.25 119.125 514.8594Q118.578125 515.6406 118.578125 517.7656Z" fill-rule="nonzero"/><path fill="#000000" d="M64.984375 362.90103L64.984375 361.85416Q64.203125 361.74478 63.703125 361.49478Q63.203125 361.24478 62.84375 360.68228Q62.484375 360.10416 62.421875 359.27603L63.484375 359.08853Q63.609375 359.93228 63.921875 360.3229Q64.375 360.8854 64.984375 360.96353L64.984375 357.60416Q64.34375 357.47916 63.65625 357.08853Q63.15625 356.80728 62.875 356.3229Q62.609375 355.8229 62.609375 355.18228Q62.609375 354.05728 63.40625 353.36978Q63.9375 352.90103 64.984375 352.79166L64.984375 352.29166L65.609375 352.29166L65.609375 352.79166Q66.53125 352.86978 67.0625 353.3229Q67.765625 353.90103 67.90625 354.90103L66.8125 355.0729Q66.71875 354.4479 66.421875 354.11978Q66.125 353.79166 65.609375 353.68228L65.609375 356.71353Q66.40625 356.91666 66.671875 357.02603Q67.15625 357.24478 67.46875 357.55728Q67.78125 357.86978 67.9375 358.30728Q68.109375 358.72916 68.109375 359.22916Q68.109375 360.3229 67.40625 361.05728Q66.71875 361.79166 65.609375 361.83853L65.609375 362.90103L64.984375 362.90103ZM64.984375 353.66666Q64.375 353.7604 64.015625 354.16666Q63.671875 354.55728 63.671875 355.10416Q63.671875 355.6354 63.96875 356.0104Q64.265625 356.36978 64.984375 356.58853L64.984375 353.66666ZM65.609375 360.96353Q66.21875 360.8854 66.625 360.43228Q67.03125 359.96353 67.03125 359.29166Q67.03125 358.71353 66.734375 358.36978Q66.453125 358.02603 65.609375 357.74478L65.609375 360.96353ZM75.046875 360.65103L75.046875 361.66666L69.359375 361.66666Q69.359375 361.29166 69.484375 360.93228Q69.703125 360.35416 70.171875 359.79166Q70.65625 359.22916 71.5625 358.49478Q72.96875 357.33853 73.453125 356.66666Q73.953125 355.99478 73.953125 355.40103Q73.953125 354.77603 73.5 354.35416Q73.046875 353.91666 72.328125 353.91666Q71.5625 353.91666 71.109375 354.36978Q70.65625 354.8229 70.640625 355.6354L69.5625 355.52603Q69.671875 354.30728 70.390625 353.68228Q71.125 353.04166 72.359375 353.04166Q73.59375 353.04166 74.3125 353.72916Q75.03125 354.41666 75.03125 355.43228Q75.03125 355.9479 74.8125 356.4479Q74.609375 356.93228 74.109375 357.49478Q73.625 358.04166 72.5 358.99478Q71.546875 359.79166 71.265625 360.08853Q71.0 360.36978 70.828125 360.65103L75.046875 360.65103ZM76.5 357.43228Q76.5 355.90103 76.8125 354.97916Q77.125 354.04166 77.734375 353.54166Q78.359375 353.04166 79.296875 353.04166Q79.984375 353.04166 80.5 353.3229Q81.03125 353.60416 81.375 354.1354Q81.71875 354.65103 81.90625 355.40103Q82.09375 356.15103 82.09375 357.43228Q82.09375 358.9479 81.78125 359.86978Q81.484375 360.79166 80.859375 361.30728Q80.25 361.80728 79.296875 361.80728Q78.0625 361.80728 77.34375 360.91666Q76.5 359.85416 76.5 357.43228ZM77.578125 357.43228Q77.578125 359.54166 78.078125 360.24478Q78.578125 360.9479 79.296875 360.9479Q80.03125 360.9479 80.515625 360.24478Q81.015625 359.54166 81.015625 357.43228Q81.015625 355.30728 80.515625 354.61978Q80.03125 353.91666 79.28125 353.91666Q78.5625 353.91666 78.125 354.52603Q77.578125 355.30728 77.578125 357.43228ZM84.0625 361.66666L84.0625 360.46353L85.265625 360.46353L85.265625 361.66666Q85.265625 362.3229 85.03125 362.72916Q84.796875 363.15103 84.296875 363.36978L84.0 362.91666Q84.328125 362.77603 84.484375 362.47916Q84.640625 362.1979 84.671875 361.66666L84.0625 361.66666ZM86.5 357.43228Q86.5 355.90103 86.8125 354.97916Q87.125 354.04166 87.734375 353.54166Q88.359375 353.04166 89.296875 353.04166Q89.984375 353.04166 90.5 353.3229Q91.03125 353.60416 91.375 354.1354Q91.71875 354.65103 91.90625 355.40103Q92.09375 356.15103 92.09375 357.43228Q92.09375 358.9479 91.78125 359.86978Q91.484375 360.79166 90.859375 361.30728Q90.25 361.80728 89.296875 361.80728Q88.0625 361.80728 87.34375 360.91666Q86.5 359.85416 86.5 357.43228ZM87.578125 357.43228Q87.578125 359.54166 88.078125 360.24478Q88.578125 360.9479 89.296875 360.9479Q90.03125 360.9479 90.515625 360.24478Q91.015625 359.54166 91.015625 357.43228Q91.015625 355.30728 90.515625 354.61978Q90.03125 353.91666 89.28125 353.91666Q88.5625 353.91666 88.125 354.52603Q87.578125 355.30728 87.578125 357.43228ZM93.5 357.43228Q93.5 355.90103 93.8125 354.97916Q94.125 354.04166 94.734375 353.54166Q95.359375 353.04166 96.296875 353.04166Q96.984375 353.04166 97.5 353.3229Q98.03125 353.60416 98.375 354.1354Q98.71875 354.65103 98.90625 355.40103Q99.09375 356.15103 99.09375 357.43228Q99.09375 358.9479 98.78125 359.86978Q98.484375 360.79166 97.859375 361.30728Q97.25 361.80728 96.296875 361.80728Q95.0625 361.80728 94.34375 360.91666Q93.5 359.85416 93.5 357.43228ZM94.578125 357.43228Q94.578125 359.54166 95.078125 360.24478Q95.578125 360.9479 96.296875 360.9479Q97.03125 360.9479 97.515625 360.24478Q98.015625 359.54166 98.015625 357.43228Q98.015625 355.30728 97.515625 354.61978Q97.03125 353.91666 96.28125 353.91666Q95.5625 353.91666 95.125 354.52603Q94.578125 355.30728 94.578125 357.43228ZM100.5 357.43228Q100.5 355.90103 100.8125 354.97916Q101.125 354.04166 101.734375 353.54166Q102.359375 353.04166 103.296875 353.04166Q103.984375 353.04166 104.5 353.3229Q105.03125 353.60416 105.375 354.1354Q105.71875 354.65103 105.90625 355.40103Q106.09375 356.15103 106.09375 357.43228Q106.09375 358.9479 105.78125 359.86978Q105.484375 360.79166 104.859375 361.30728Q104.25 361.80728 103.296875 361.80728Q102.0625 361.80728 101.34375 360.91666Q100.5 359.85416 100.5 357.43228ZM101.578125 357.43228Q101.578125 359.54166 102.078125 360.24478Q102.578125 360.9479 103.296875 360.9479Q104.03125 360.9479 104.515625 360.24478Q105.015625 359.54166 105.015625 357.43228Q105.015625 355.30728 104.515625 354.61978Q104.03125 353.91666 103.28125 353.91666Q102.5625 353.91666 102.125 354.52603Q101.578125 355.30728 101.578125 357.43228ZM108.09375 361.66666L108.09375 360.46353L109.296875 360.46353L109.296875 361.66666L108.09375 361.66666ZM110.5 357.43228Q110.5 355.90103 110.8125 354.97916Q111.125 354.04166 111.734375 353.54166Q112.359375 353.04166 113.296875 353.04166Q113.984375 353.04166 114.5 353.3229Q115.03125 353.60416 115.375 354.1354Q115.71875 354.65103 115.90625 355.40103Q116.09375 356.15103 116.09375 357.43228Q116.09375 358.9479 115.78125 359.86978Q115.484375 360.79166 114.859375 361.30728Q114.25 361.80728 113.296875 361.80728Q112.0625 361.80728 111.34375 360.91666Q110.5 359.85416 110.5 357.43228ZM111.578125 357.43228Q111.578125 359.54166 112.078125 360.24478Q112.578125 360.9479 113.296875 360.9479Q114.03125 360.9479 114.515625 360.24478Q115.015625 359.54166 115.015625 357.43228Q115.015625 355.30728 114.515625 354.61978Q114.03125 353.91666 113.28125 353.91666Q112.5625 353.91666 112.125 354.52603Q111.578125 355.30728 111.578125 357.43228ZM117.5 357.43228Q117.5 355.90103 117.8125 354.97916Q118.125 354.04166 118.734375 353.54166Q119.359375 353.04166 120.296875 353.04166Q120.984375 353.04166 121.5 353.3229Q122.03125 353.60416 122.375 354.1354Q122.71875 354.65103 122.90625 355.40103Q123.09375 356.15103 123.09375 357.43228Q123.09375 358.9479 122.78125 359.86978Q122.484375 360.79166 121.859375 361.30728Q121.25 361.80728 120.296875 361.80728Q119.0625 361.80728 118.34375 360.91666Q117.5 359.85416 117.5 357.43228ZM118.578125 357.43228Q118.578125 359.54166 119.078125 360.24478Q119.578125 360.9479 120.296875 360.9479Q121.03125 360.9479 121.515625 360.24478Q122.015625 359.54166 122.015625 357.43228Q122.015625 355.30728 121.515625 354.61978Q121.03125 353.91666 120.28125 353.91666Q119.5625 353.91666 119.125 354.52603Q118.578125 355.30728 118.578125 357.43228Z" fill-rule="nonzero"/><path fill="#000000" d="M64.984375 202.5677L64.984375 201.52083Q64.203125 201.41145 63.703125 201.16145Q63.203125 200.91145 62.84375 200.34895Q62.484375 199.77083 62.421875 198.9427L63.484375 198.7552Q63.609375 199.59895 63.921875 199.98958Q64.375 200.55208 64.984375 200.6302L64.984375 197.27083Q64.34375 197.14583 63.65625 196.7552Q63.15625 196.47395 62.875 195.98958Q62.609375 195.48958 62.609375 194.84895Q62.609375 193.72395 63.40625 193.03645Q63.9375 192.5677 64.984375 192.45833L64.984375 191.95833L65.609375 191.95833L65.609375 192.45833Q66.53125 192.53645 67.0625 192.98958Q67.765625 193.5677 67.90625 194.5677L66.8125 194.73958Q66.71875 194.11458 66.421875 193.78645Q66.125 193.45833 65.609375 193.34895L65.609375 196.3802Q66.40625 196.58333 66.671875 196.6927Q67.15625 196.91145 67.46875 197.22395Q67.78125 197.53645 67.9375 197.97395Q68.109375 198.39583 68.109375 198.89583Q68.109375 199.98958 67.40625 200.72395Q66.71875 201.45833 65.609375 201.5052L65.609375 202.5677L64.984375 202.5677ZM64.984375 193.33333Q64.375 193.42708 64.015625 193.83333Q63.671875 194.22395 63.671875 194.77083Q63.671875 195.30208 63.96875 195.67708Q64.265625 196.03645 64.984375 196.2552L64.984375 193.33333ZM65.609375 200.6302Q66.21875 200.55208 66.625 200.09895Q67.03125 199.6302 67.03125 198.95833Q67.03125 198.3802 66.734375 198.03645Q66.453125 197.6927 65.609375 197.41145L65.609375 200.6302ZM72.875 201.33333L72.875 199.27083L69.15625 199.27083L69.15625 198.30208L73.078125 192.73958L73.9375 192.73958L73.9375 198.30208L75.09375 198.30208L75.09375 199.27083L73.9375 199.27083L73.9375 201.33333L72.875 201.33333ZM72.875 198.30208L72.875 194.4427L70.1875 198.30208L72.875 198.30208ZM76.5 197.09895Q76.5 195.5677 76.8125 194.64583Q77.125 193.70833 77.734375 193.20833Q78.359375 192.70833 79.296875 192.70833Q79.984375 192.70833 80.5 192.98958Q81.03125 193.27083 81.375 193.80208Q81.71875 194.3177 81.90625 195.0677Q82.09375 195.8177 82.09375 197.09895Q82.09375 198.61458 81.78125 199.53645Q81.484375 200.45833 80.859375 200.97395Q80.25 201.47395 79.296875 201.47395Q78.0625 201.47395 77.34375 200.58333Q76.5 199.52083 76.5 197.09895ZM77.578125 197.09895Q77.578125 199.20833 78.078125 199.91145Q78.578125 200.61458 79.296875 200.61458Q80.03125 200.61458 80.515625 199.91145Q81.015625 199.20833 81.015625 197.09895Q81.015625 194.97395 80.515625 194.28645Q80.03125 193.58333 79.28125 193.58333Q78.5625 193.58333 78.125 194.1927Q77.578125 194.97395 77.578125 197.09895ZM84.0625 201.33333L84.0625 200.1302L85.265625 200.1302L85.265625 201.33333Q85.265625 201.98958 85.03125 202.39583Q84.796875 202.8177 84.296875 203.03645L84.0 202.58333Q84.328125 202.4427 84.484375 202.14583Q84.640625 201.86458 84.671875 201.33333L84.0625 201.33333ZM86.5 197.09895Q86.5 195.5677 86.8125 194.64583Q87.125 193.70833 87.734375 193.20833Q88.359375 192.70833 89.296875 192.70833Q89.984375 192.70833 90.5 192.98958Q91.03125 193.27083 91.375 193.80208Q91.71875 194.3177 91.90625 195.0677Q92.09375 195.8177 92.09375 197.09895Q92.09375 198.61458 91.78125 199.53645Q91.484375 200.45833 90.859375 200.97395Q90.25 201.47395 89.296875 201.47395Q88.0625 201.47395 87.34375 200.58333Q86.5 199.52083 86.5 197.09895ZM87.578125 197.09895Q87.578125 199.20833 88.078125 199.91145Q88.578125 200.61458 89.296875 200.61458Q90.03125 200.61458 90.515625 199.91145Q91.015625 199.20833 91.015625 197.09895Q91.015625 194.97395 90.515625 194.28645Q90.03125 193.58333 89.28125 193.58333Q88.5625 193.58333 88.125 194.1927Q87.578125 194.97395 87.578125 197.09895ZM93.5 197.09895Q93.5 195.5677 93.8125 194.64583Q94.125 193.70833 94.734375 193.20833Q95.359375 192.70833 96.296875 192.70833Q96.984375 192.70833 97.5 192.98958Q98.03125 193.27083 98.375 193.80208Q98.71875 194.3177 98.90625 195.0677Q99.09375 195.8177 99.09375 197.09895Q99.09375 198.61458 98.78125 199.53645Q98.484375 200.45833 97.859375 200.97395Q97.25 201.47395 96.296875 201.47395Q95.0625 201.47395 94.34375 200.58333Q93.5 199.52083 93.5 197.09895ZM94.578125 197.09895Q94.578125 199.20833 95.078125 199.91145Q95.578125 200.61458 96.296875 200.61458Q97.03125 200.61458 97.515625 199.91145Q98.015625 199.20833 98.015625 197.09895Q98.015625 194.97395 97.515625 194.28645Q97.03125 193.58333 96.28125 193.58333Q95.5625 193.58333 95.125 194.1927Q94.578125 194.97395 94.578125 197.09895ZM100.5 197.09895Q100.5 195.5677 100.8125 194.64583Q101.125 193.70833 101.734375 193.20833Q102.359375 192.70833 103.296875 192.70833Q103.984375 192.70833 104.5 192.98958Q105.03125 193.27083 105.375 193.80208Q105.71875 194.3177 105.90625 195.0677Q106.09375 195.8177 106.09375 197.09895Q106.09375 198.61458 105.78125 199.53645Q105.484375 200.45833 104.859375 200.97395Q104.25 201.47395 103.296875 201.47395Q102.0625 201.47395 101.34375 200.58333Q100.5 199.52083 100.5 197.09895ZM101.578125 197.09895Q101.578125 199.20833 102.078125 199.91145Q102.578125 200.61458 103.296875 200.61458Q104.03125 200.61458 104.515625 199.91145Q105.015625 199.20833 105.015625 197.09895Q105.015625 194.97395 104.515625 194.28645Q104.03125 193.58333 103.28125 193.58333Q102.5625 193.58333 102.125 194.1927Q101.578125 194.97395 101.578125 197.09895ZM108.09375 201.33333L108.09375 200.1302L109.296875 200.1302L109.296875 201.33333L108.09375 201.33333ZM110.5 197.09895Q110.5 195.5677 110.8125 194.64583Q111.125 193.70833 111.734375 193.20833Q112.359375 192.70833 113.296875 192.70833Q113.984375 192.70833 114.5 192.98958Q115.03125 193.27083 115.375 193.80208Q115.71875 194.3177 115.90625 195.0677Q116.09375 195.8177 116.09375 197.09895Q116.09375 198.61458 115.78125 199.53645Q115.484375 200.45833 114.859375 200.97395Q114.25 201.47395 113.296875 201.47395Q112.0625 201.47395 111.34375 200.58333Q110.5 199.52083 110.5 197.09895ZM111.578125 197.09895Q111.578125 199.20833 112.078125 199.91145Q112.578125 200.61458 113.296875 200.61458Q114.03125 200.61458 114.515625 199.91145Q115.015625 199.20833 115.015625 197.09895Q115.015625 194.97395 114.515625 194.28645Q114.03125 193.58333 113.28125 193.58333Q112.5625 193.58333 112.125 194.1927Q111.578125 194.97395 111.578125 197.09895ZM117.5 197.09895Q117.5 195.5677 117.8125 194.64583Q118.125 193.70833 118.734375 193.20833Q119.359375 192.70833 120.296875 192.70833Q120.984375 192.70833 121.5 192.98958Q122.03125 193.27083 122.375 193.80208Q122.71875 194.3177 122.90625 195.0677Q123.09375 195.8177 123.09375 197.09895Q123.09375 198.61458 122.78125 199.53645Q122.484375 200.45833 121.859375 200.97395Q121.25 201.47395 120.296875 201.47395Q119.0625 201.47395 118.34375 200.58333Q117.5 199.52083 117.5 197.09895ZM118.578125 197.09895Q118.578125 199.20833 119.078125 199.91145Q119.578125 200.61458 120.296875 200.61458Q121.03125 200.61458 121.515625 199.91145Q122.015625 199.20833 122.015625 197.09895Q122.015625 194.97395 121.515625 194.28645Q121.03125 193.58333 120.28125 193.58333Q119.5625 193.58333 119.125 194.1927Q118.578125 194.97395 118.578125 197.09895Z" fill-rule="nonzero"/><path fill="#000000" d="M64.984375 42.234375L64.984375 41.1875Q64.203125 41.078125 63.703125 40.828125Q63.203125 40.578125 62.84375 40.015625Q62.484375 39.4375 62.421875 38.609375L63.484375 38.421875Q63.609375 39.265625 63.921875 39.65625Q64.375 40.21875 64.984375 40.296875L64.984375 36.9375Q64.34375 36.8125 63.65625 36.421875Q63.15625 36.140625 62.875 35.65625Q62.609375 35.15625 62.609375 34.515625Q62.609375 33.390625 63.40625 32.703125Q63.9375 32.234375 64.984375 32.125L64.984375 31.625L65.609375 31.625L65.609375 32.125Q66.53125 32.203125 67.0625 32.65625Q67.765625 33.234375 67.90625 34.234375L66.8125 34.40625Q66.71875 33.78125 66.421875 33.453125Q66.125 33.125 65.609375 33.015625L65.609375 36.046875Q66.40625 36.25 66.671875 36.359375Q67.15625 36.578125 67.46875 36.890625Q67.78125 37.203125 67.9375 37.640625Q68.109375 38.0625 68.109375 38.5625Q68.109375 39.65625 67.40625 40.390625Q66.71875 41.125 65.609375 41.171875L65.609375 42.234375L64.984375 42.234375ZM64.984375 33.0Q64.375 33.09375 64.015625 33.5Q63.671875 33.890625 63.671875 34.4375Q63.671875 34.96875 63.96875 35.34375Q64.265625 35.703125 64.984375 35.921875L64.984375 33.0ZM65.609375 40.296875Q66.21875 40.21875 66.625 39.765625Q67.03125 39.296875 67.03125 38.625Q67.03125 38.046875 66.734375 37.703125Q66.453125 37.359375 65.609375 37.078125L65.609375 40.296875ZM74.96875 34.515625L73.921875 34.59375Q73.78125 33.96875 73.53125 33.6875Q73.09375 33.234375 72.46875 33.234375Q71.96875 33.234375 71.578125 33.515625Q71.09375 33.890625 70.796875 34.59375Q70.515625 35.28125 70.5 36.5625Q70.875 35.984375 71.421875 35.703125Q71.984375 35.421875 72.59375 35.421875Q73.640625 35.421875 74.375 36.203125Q75.125 36.984375 75.125 38.203125Q75.125 39.015625 74.765625 39.71875Q74.421875 40.40625 73.8125 40.78125Q73.203125 41.140625 72.4375 41.140625Q71.109375 41.140625 70.28125 40.171875Q69.453125 39.203125 69.453125 36.984375Q69.453125 34.484375 70.375 33.359375Q71.171875 32.375 72.53125 32.375Q73.546875 32.375 74.1875 32.953125Q74.84375 33.515625 74.96875 34.515625ZM70.671875 38.21875Q70.671875 38.765625 70.890625 39.265625Q71.125 39.75 71.53125 40.015625Q71.953125 40.28125 72.421875 40.28125Q73.078125 40.28125 73.5625 39.75Q74.046875 39.203125 74.046875 38.28125Q74.046875 37.390625 73.5625 36.875Q73.09375 36.359375 72.375 36.359375Q71.65625 36.359375 71.15625 36.875Q70.671875 37.390625 70.671875 38.21875ZM76.5 36.765625Q76.5 35.234375 76.8125 34.3125Q77.125 33.375 77.734375 32.875Q78.359375 32.375 79.296875 32.375Q79.984375 32.375 80.5 32.65625Q81.03125 32.9375 81.375 33.46875Q81.71875 33.984375 81.90625 34.734375Q82.09375 35.484375 82.09375 36.765625Q82.09375 38.28125 81.78125 39.203125Q81.484375 40.125 80.859375 40.640625Q80.25 41.140625 79.296875 41.140625Q78.0625 41.140625 77.34375 40.25Q76.5 39.1875 76.5 36.765625ZM77.578125 36.765625Q77.578125 38.875 78.078125 39.578125Q78.578125 40.28125 79.296875 40.28125Q80.03125 40.28125 80.515625 39.578125Q81.015625 38.875 81.015625 36.765625Q81.015625 34.640625 80.515625 33.953125Q80.03125 33.25 79.28125 33.25Q78.5625 33.25 78.125 33.859375Q77.578125 34.640625 77.578125 36.765625ZM84.0625 41.0L84.0625 39.796875L85.265625 39.796875L85.265625 41.0Q85.265625 41.65625 85.03125 42.0625Q84.796875 42.484375 84.296875 42.703125L84.0 42.25Q84.328125 42.109375 84.484375 41.8125Q84.640625 41.53125 84.671875 41.0L84.0625 41.0ZM86.5 36.765625Q86.5 35.234375 86.8125 34.3125Q87.125 33.375 87.734375 32.875Q88.359375 32.375 89.296875 32.375Q89.984375 32.375 90.5 32.65625Q91.03125 32.9375 91.375 33.46875Q91.71875 33.984375 91.90625 34.734375Q92.09375 35.484375 92.09375 36.765625Q92.09375 38.28125 91.78125 39.203125Q91.484375 40.125 90.859375 40.640625Q90.25 41.140625 89.296875 41.140625Q88.0625 41.140625 87.34375 40.25Q86.5 39.1875 86.5 36.765625ZM87.578125 36.765625Q87.578125 38.875 88.078125 39.578125Q88.578125 40.28125 89.296875 40.28125Q90.03125 40.28125 90.515625 39.578125Q91.015625 38.875 91.015625 36.765625Q91.015625 34.640625 90.515625 33.953125Q90.03125 33.25 89.28125 33.25Q88.5625 33.25 88.125 33.859375Q87.578125 34.640625 87.578125 36.765625ZM93.5 36.765625Q93.5 35.234375 93.8125 34.3125Q94.125 33.375 94.734375 32.875Q95.359375 32.375 96.296875 32.375Q96.984375 32.375 97.5 32.65625Q98.03125 32.9375 98.375 33.46875Q98.71875 33.984375 98.90625 34.734375Q99.09375 35.484375 99.09375 36.765625Q99.09375 38.28125 98.78125 39.203125Q98.484375 40.125 97.859375 40.640625Q97.25 41.140625 96.296875 41.140625Q95.0625 41.140625 94.34375 40.25Q93.5 39.1875 93.5 36.765625ZM94.578125 36.765625Q94.578125 38.875 95.078125 39.578125Q95.578125 40.28125 96.296875 40.28125Q97.03125 40.28125 97.515625 39.578125Q98.015625 38.875 98.015625 36.765625Q98.015625 34.640625 97.515625 33.953125Q97.03125 33.25 96.28125 33.25Q95.5625 33.25 95.125 33.859375Q94.578125 34.640625 94.578125 36.765625ZM100.5 36.765625Q100.5 35.234375 100.8125 34.3125Q101.125 33.375 101.734375 32.875Q102.359375 32.375 103.296875 32.375Q103.984375 32.375 104.5 32.65625Q105.03125 32.9375 105.375 33.46875Q105.71875 33.984375 105.90625 34.734375Q106.09375 35.484375 106.09375 36.765625Q106.09375 38.28125 105.78125 39.203125Q105.484375 40.125 104.859375 40.640625Q104.25 41.140625 103.296875 41.140625Q102.0625 41.140625 101.34375 40.25Q100.5 39.1875 100.5 36.765625ZM101.578125 36.765625Q101.578125 38.875 102.078125 39.578125Q102.578125 40.28125 103.296875 40.28125Q104.03125 40.28125 104.515625 39.578125Q105.015625 38.875 105.015625 36.765625Q105.015625 34.640625 104.515625 33.953125Q104.03125 33.25 103.28125 33.25Q102.5625 33.25 102.125 33.859375Q101.578125 34.640625 101.578125 36.765625ZM108.09375 41.0L108.09375 39.796875L109.296875 39.796875L109.296875 41.0L108.09375 41.0ZM110.5 36.765625Q110.5 35.234375 110.8125 34.3125Q111.125 33.375 111.734375 32.875Q112.359375 32.375 113.296875 32.375Q113.984375 32.375 114.5 32.65625Q115.03125 32.9375 115.375 33.46875Q115.71875 33.984375 115.90625 34.734375Q116.09375 35.484375 116.09375 36.765625Q116.09375 38.28125 115.78125 39.203125Q115.484375 40.125 114.859375 40.640625Q114.25 41.140625 113.296875 41.140625Q112.0625 41.140625 111.34375 40.25Q110.5 39.1875 110.5 36.765625ZM111.578125 36.765625Q111.578125 38.875 112.078125 39.578125Q112.578125 40.28125 113.296875 40.28125Q114.03125 40.28125 114.515625 39.578125Q115.015625 38.875 115.015625 36.765625Q115.015625 34.640625 114.515625 33.953125Q114.03125 33.25 113.28125 33.25Q112.5625 33.25 112.125 33.859375Q111.578125 34.640625 111.578125 36.765625ZM117.5 36.765625Q117.5 35.234375 117.8125 34.3125Q118.125 33.375 118.734375 32.875Q119.359375 32.375 120.296875 32.375Q120.984375 32.375 121.5 32.65625Q122.03125 32.9375 122.375 33.46875Q122.71875 33.984375 122.90625 34.734375Q123.09375 35.484375 123.09375 36.765625Q123.09375 38.28125 122.78125 39.203125Q122.484375 40.125 121.859375 40.640625Q121.25 41.140625 120.296875 41.140625Q119.0625 41.140625 118.34375 40.25Q117.5 39.1875 117.5 36.765625ZM118.578125 36.765625Q118.578125 38.875 119.078125 39.578125Q119.578125 40.28125 120.296875 40.28125Q121.03125 40.28125 121.515625 39.578125Q122.015625 38.875 122.015625 36.765625Q122.015625 34.640625 121.515625 33.953125Q121.03125 33.25 120.28125 33.25Q119.5625 33.25 119.125 33.859375Q118.578125 34.640625 118.578125 36.765625Z" fill-rule="nonzero"/><path fill="#000000" d="M253.95312 531.625L253.95312 530.625L257.57812 530.6094L257.57812 533.7969Q256.75 534.46875 255.85938 534.8125Q254.96875 535.1406 254.03125 535.1406Q252.76562 535.1406 251.71875 534.6094Q250.6875 534.0625 250.15625 533.0469Q249.64062 532.0156 249.64062 530.75Q249.64062 529.4844 250.15625 528.40625Q250.6875 527.3125 251.67188 526.7969Q252.65625 526.2656 253.9375 526.2656Q254.875 526.2656 255.625 526.5625Q256.375 526.8594 256.79688 527.40625Q257.23438 527.9375 257.45312 528.8125L256.4375 529.09375Q256.23438 528.4375 255.9375 528.0625Q255.65625 527.6875 255.125 527.46875Q254.59375 527.2344 253.95312 527.2344Q253.17188 527.2344 252.59375 527.46875Q252.03125 527.7031 251.67188 528.09375Q251.32812 528.4844 251.14062 528.9531Q250.8125 529.75 250.8125 530.6719Q250.8125 531.8281 251.20312 532.6094Q251.60938 533.375 252.35938 533.75Q253.10938 534.125 253.96875 534.125Q254.70312 534.125 255.40625 533.84375Q256.10938 533.5469 256.46875 533.2344L256.46875 531.625L253.95312 531.625ZM262.95312 531.625L262.95312 530.625L266.57812 530.6094L266.57812 533.7969Q265.75 534.46875 264.85938 534.8125Q263.96875 535.1406 263.03125 535.1406Q261.76562 535.1406 260.71875 534.6094Q259.6875 534.0625 259.15625 533.0469Q258.64062 532.0156 258.64062 530.75Q258.64062 529.4844 259.15625 528.40625Q259.6875 527.3125 260.67188 526.7969Q261.65625 526.2656 262.9375 526.2656Q263.875 526.2656 264.625 526.5625Q265.375 526.8594 265.79688 527.40625Q266.23438 527.9375 266.45312 528.8125L265.4375 529.09375Q265.23438 528.4375 264.9375 528.0625Q264.65625 527.6875 264.125 527.46875Q263.59375 527.2344 262.95312 527.2344Q262.17188 527.2344 261.59375 527.46875Q261.03125 527.7031 260.67188 528.09375Q260.32812 528.4844 260.14062 528.9531Q259.8125 529.75 259.8125 530.6719Q259.8125 531.8281 260.20312 532.6094Q260.60938 533.375 261.35938 533.75Q262.10938 534.125 262.96875 534.125Q263.70312 534.125 264.40625 533.84375Q265.10938 533.5469 265.46875 533.2344L265.46875 531.625L262.95312 531.625ZM271.46875 535.0L270.42188 535.0L270.42188 528.28125Q270.03125 528.6406 269.40625 529.0156Q268.79688 529.375 268.3125 529.5469L268.3125 528.53125Q269.1875 528.1094 269.84375 527.53125Q270.51562 526.9375 270.79688 526.375L271.46875 526.375L271.46875 535.0ZM274.65625 533.0156L275.67188 532.9219Q275.79688 533.6406 276.15625 533.96875Q276.53125 534.28125 277.09375 534.28125Q277.57812 534.28125 277.9375 534.0625Q278.3125 533.8281 278.54688 533.46875Q278.78125 533.09375 278.9375 532.46875Q279.09375 531.8281 279.09375 531.1719Q279.09375 531.09375 279.09375 530.9531Q278.78125 531.4531 278.23438 531.78125Q277.6875 532.09375 277.04688 532.09375Q275.96875 532.09375 275.23438 531.3281Q274.5 530.5469 274.5 529.28125Q274.5 527.96875 275.26562 527.1719Q276.04688 526.375 277.20312 526.375Q278.03125 526.375 278.71875 526.8281Q279.42188 527.28125 279.78125 528.125Q280.14062 528.9531 280.14062 530.53125Q280.14062 532.1719 279.78125 533.15625Q279.4375 534.125 278.71875 534.6406Q278.01562 535.1406 277.07812 535.1406Q276.0625 535.1406 275.42188 534.59375Q274.78125 534.03125 274.65625 533.0156ZM278.96875 529.21875Q278.96875 528.3125 278.48438 527.78125Q278.01562 527.25 277.32812 527.25Q276.625 527.25 276.09375 527.8281Q275.57812 528.3906 275.57812 529.3125Q275.57812 530.125 276.07812 530.6406Q276.57812 531.15625 277.29688 531.15625Q278.03125 531.15625 278.5 530.6406Q278.96875 530.125 278.96875 529.21875Z" fill-rule="nonzero"/><path fill="#000000" d="M523.9531 531.625L523.9531 530.625L527.5781 530.6094L527.5781 533.7969Q526.75 534.46875 525.8594 534.8125Q524.96875 535.1406 524.03125 535.1406Q522.7656 535.1406 521.71875 534.6094Q520.6875 534.0625 520.15625 533.0469Q519.6406 532.0156 519.6406 530.75Q519.6406 529.4844 520.15625 528.40625Q520.6875 527.3125 521.6719 526.7969Q522.65625 526.2656 523.9375 526.2656Q524.875 526.2656 525.625 526.5625Q526.375 526.8594 526.7969 527.40625Q527.2344 527.9375 527.4531 528.8125L526.4375 529.09375Q526.2344 528.4375 525.9375 528.0625Q525.65625 527.6875 525.125 527.46875Q524.59375 527.2344 523.9531 527.2344Q523.1719 527.2344 522.59375 527.46875Q522.03125 527.7031 521.6719 528.09375Q521.3281 528.4844 521.1406 528.9531Q520.8125 529.75 520.8125 530.6719Q520.8125 531.8281 521.2031 532.6094Q521.6094 533.375 522.3594 533.75Q523.1094 534.125 523.96875 534.125Q524.7031 534.125 525.40625 533.84375Q526.1094 533.5469 526.46875 533.2344L526.46875 531.625L523.9531 531.625ZM532.9531 531.625L532.9531 530.625L536.5781 530.6094L536.5781 533.7969Q535.75 534.46875 534.8594 534.8125Q533.96875 535.1406 533.03125 535.1406Q531.7656 535.1406 530.71875 534.6094Q529.6875 534.0625 529.15625 533.0469Q528.6406 532.0156 528.6406 530.75Q528.6406 529.4844 529.15625 528.40625Q529.6875 527.3125 530.6719 526.7969Q531.65625 526.2656 532.9375 526.2656Q533.875 526.2656 534.625 526.5625Q535.375 526.8594 535.7969 527.40625Q536.2344 527.9375 536.4531 528.8125L535.4375 529.09375Q535.2344 528.4375 534.9375 528.0625Q534.65625 527.6875 534.125 527.46875Q533.59375 527.2344 532.9531 527.2344Q532.1719 527.2344 531.59375 527.46875Q531.03125 527.7031 530.6719 528.09375Q530.3281 528.4844 530.1406 528.9531Q529.8125 529.75 529.8125 530.6719Q529.8125 531.8281 530.2031 532.6094Q530.6094 533.375 531.3594 533.75Q532.1094 534.125 532.96875 534.125Q533.7031 534.125 534.40625 533.84375Q535.1094 533.5469 535.46875 533.2344L535.46875 531.625L532.9531 531.625ZM543.0469 533.9844L543.0469 535.0L537.3594 535.0Q537.3594 534.625 537.4844 534.2656Q537.7031 533.6875 538.1719 533.125Q538.65625 532.5625 539.5625 531.8281Q540.96875 530.6719 541.4531 530.0Q541.9531 529.3281 541.9531 528.7344Q541.9531 528.1094 541.5 527.6875Q541.0469 527.25 540.3281 527.25Q539.5625 527.25 539.1094 527.7031Q538.65625 528.15625 538.6406 528.96875L537.5625 528.8594Q537.6719 527.6406 538.3906 527.0156Q539.125 526.375 540.3594 526.375Q541.59375 526.375 542.3125 527.0625Q543.03125 527.75 543.03125 528.7656Q543.03125 529.28125 542.8125 529.78125Q542.6094 530.2656 542.1094 530.8281Q541.625 531.375 540.5 532.3281Q539.5469 533.125 539.2656 533.4219Q539.0 533.7031 538.8281 533.9844L543.0469 533.9844ZM544.5 530.7656Q544.5 529.2344 544.8125 528.3125Q545.125 527.375 545.7344 526.875Q546.3594 526.375 547.2969 526.375Q547.9844 526.375 548.5 526.65625Q549.03125 526.9375 549.375 527.46875Q549.71875 527.9844 549.90625 528.7344Q550.09375 529.4844 550.09375 530.7656Q550.09375 532.28125 549.78125 533.2031Q549.4844 534.125 548.8594 534.6406Q548.25 535.1406 547.2969 535.1406Q546.0625 535.1406 545.34375 534.25Q544.5 533.1875 544.5 530.7656ZM545.5781 530.7656Q545.5781 532.875 546.0781 533.5781Q546.5781 534.28125 547.2969 534.28125Q548.03125 534.28125 548.5156 533.5781Q549.0156 532.875 549.0156 530.7656Q549.0156 528.6406 548.5156 527.9531Q548.03125 527.25 547.28125 527.25Q546.5625 527.25 546.125 527.8594Q545.5781 528.6406 545.5781 530.7656Z" fill-rule="nonzero"/><path fill="#000000" d="M793.9531 531.625L793.9531 530.625L797.5781 530.6094L797.5781 533.7969Q796.75 534.46875 795.8594 534.8125Q794.96875 535.1406 794.03125 535.1406Q792.7656 535.1406 791.71875 534.6094Q790.6875 534.0625 790.15625 533.0469Q789.6406 532.0156 789.6406 530.75Q789.6406 529.4844 790.15625 528.40625Q790.6875 527.3125 791.6719 526.7969Q792.65625 526.2656 793.9375 526.2656Q794.875 526.2656 795.625 526.5625Q796.375 526.8594 796.7969 527.40625Q797.2344 527.9375 797.4531 528.8125L796.4375 529.09375Q796.2344 528.4375 795.9375 528.0625Q795.65625 527.6875 795.125 527.46875Q794.59375 527.2344 793.9531 527.2344Q793.1719 527.2344 792.59375 527.46875Q792.03125 527.7031 791.6719 528.09375Q791.3281 528.4844 791.1406 528.9531Q790.8125 529.75 790.8125 530.6719Q790.8125 531.8281 791.2031 532.6094Q791.6094 533.375 792.3594 533.75Q793.1094 534.125 793.96875 534.125Q794.7031 534.125 795.40625 533.84375Q796.1094 533.5469 796.46875 533.2344L796.46875 531.625L793.9531 531.625ZM802.9531 531.625L802.9531 530.625L806.5781 530.6094L806.5781 533.7969Q805.75 534.46875 804.8594 534.8125Q803.96875 535.1406 803.03125 535.1406Q801.7656 535.1406 800.71875 534.6094Q799.6875 534.0625 799.15625 533.0469Q798.6406 532.0156 798.6406 530.75Q798.6406 529.4844 799.15625 528.40625Q799.6875 527.3125 800.6719 526.7969Q801.65625 526.2656 802.9375 526.2656Q803.875 526.2656 804.625 526.5625Q805.375 526.8594 805.7969 527.40625Q806.2344 527.9375 806.4531 528.8125L805.4375 529.09375Q805.2344 528.4375 804.9375 528.0625Q804.65625 527.6875 804.125 527.46875Q803.59375 527.2344 802.9531 527.2344Q802.1719 527.2344 801.59375 527.46875Q801.03125 527.7031 800.6719 528.09375Q800.3281 528.4844 800.1406 528.9531Q799.8125 529.75 799.8125 530.6719Q799.8125 531.8281 800.2031 532.6094Q800.6094 533.375 801.3594 533.75Q802.1094 534.125 802.96875 534.125Q803.7031 534.125 804.40625 533.84375Q805.1094 533.5469 805.46875 533.2344L805.46875 531.625L802.9531 531.625ZM813.0469 533.9844L813.0469 535.0L807.3594 535.0Q807.3594 534.625 807.4844 534.2656Q807.7031 533.6875 808.1719 533.125Q808.65625 532.5625 809.5625 531.8281Q810.96875 530.6719 811.4531 530.0Q811.9531 529.3281 811.9531 528.7344Q811.9531 528.1094 811.5 527.6875Q811.0469 527.25 810.3281 527.25Q809.5625 527.25 809.1094 527.7031Q808.65625 528.15625 808.6406 528.96875L807.5625 528.8594Q807.6719 527.6406 808.3906 527.0156Q809.125 526.375 810.3594 526.375Q811.59375 526.375 812.3125 527.0625Q813.03125 527.75 813.03125 528.7656Q813.03125 529.28125 812.8125 529.78125Q812.6094 530.2656 812.1094 530.8281Q811.625 531.375 810.5 532.3281Q809.5469 533.125 809.2656 533.4219Q809.0 533.7031 808.8281 533.9844L813.0469 533.9844ZM818.46875 535.0L817.4219 535.0L817.4219 528.28125Q817.03125 528.6406 816.40625 529.0156Q815.7969 529.375 815.3125 529.5469L815.3125 528.53125Q816.1875 528.1094 816.84375 527.53125Q817.5156 526.9375 817.7969 526.375L818.46875 526.375L818.46875 535.0Z" fill-rule="nonzero"/></svg>